<?xml version="1.0" encoding="UTF-8"?>
<svg version="1.1" xmlns="http://www.w3.org/2000/svg" width="512" height="512">
<path d="M0 0 C3.79045735 0.83879738 6.43393856 2.3876461 9.75 4.4375 C52.70215825 29.73077526 105.25259895 35.87374361 154 40 C155.19012695 40.10223877 155.19012695 40.10223877 156.40429688 40.20654297 C160.93221399 40.58164328 165.46084862 40.8209532 170 41 C171.0926416 41.04366699 172.1852832 41.08733398 173.31103516 41.13232422 C253.07888097 44.19992103 355.99992446 47.13523657 425.8125 2 C429 0 429 0 432 0 C432.06972867 12.30956026 432.12292703 24.61907298 432.15543652 36.92879105 C432.17104501 42.64563255 432.19219485 48.36233821 432.22631836 54.07910156 C432.2590841 59.60341464 432.27688918 65.12759762 432.28463173 70.65200043 C432.29014446 72.75216467 432.30090892 74.85232236 432.31719017 76.95243073 C432.44614895 94.28732576 431.71258118 107.71522219 419.5 121 C376.70504749 161.77250674 292.03124282 166.03891506 236.0234375 166.203125 C234.53502882 166.210106 233.04662042 166.21714694 231.55821228 166.22424316 C226.83047104 166.24350725 222.10277622 166.24841853 217.375 166.25 C216.57033169 166.25058914 215.76566338 166.25117828 214.93661118 166.25178528 C190.5012713 166.26441692 166.29139417 165.91285338 142 163 C140.08815918 162.7831958 140.08815918 162.7831958 138.13769531 162.56201172 C94.71727218 157.54683621 37.41338576 149.61166209 6.9140625 114.5859375 C0.63666619 106.10504697 -0.15543161 96.71808295 -0.11352539 86.50634766 C-0.11367142 85.56912872 -0.11381744 84.63190979 -0.1139679 83.66629028 C-0.1132737 80.58219045 -0.10550444 77.49815173 -0.09765625 74.4140625 C-0.09579032 72.27029453 -0.09436724 70.12652612 -0.09336853 67.98275757 C-0.08955716 62.35051285 -0.07973866 56.71829407 -0.06866455 51.08605957 C-0.05842074 45.33472037 -0.05386455 39.58337696 -0.04882812 33.83203125 C-0.03811515 22.55467613 -0.02105531 11.27734022 0 0 Z " fill="#6b7280" transform="translate(40,346)"/>
<path d="M0 0 C3.58476993 0.76168391 6.32649609 2.2687118 9.47875977 4.13549805 C56.20254076 31.67810046 114.71494985 38.24799648 168 41 C169.4837915 41.08459473 169.4837915 41.08459473 170.99755859 41.17089844 C249.98933392 45.58764286 358.86849796 48.42865776 426.8984375 1.25 C429 0 429 0 432 0 C432.20877817 12.37835216 432.36857036 24.75628374 432.46630955 37.13603973 C432.51322688 42.88494675 432.57683415 48.63264694 432.67895508 54.38085938 C432.77694048 59.93119614 432.83059867 65.48037431 432.85389519 71.0315094 C432.87049054 73.14630877 432.90289969 75.26104659 432.95157051 77.37535095 C433.31774811 93.94553604 433.31774811 93.94553604 430.05157471 99.03773499 C427.78656729 101.08545352 425.67626407 102.55144306 423 104 C421.90199314 104.80188667 420.80999511 105.61212246 419.7265625 106.43359375 C380.02947906 132.08170938 331.55760963 139.66614509 285.25 143.75 C284.24874588 143.83874893 284.24874588 143.83874893 283.2272644 143.92929077 C278.48802925 144.34085226 273.74681207 144.69104737 269 145 C268.25711731 145.0483902 267.51423462 145.0967804 266.74884033 145.14663696 C250.13643603 146.18022739 233.51324667 146.20160493 216.875 146.1875 C216.16884678 146.18723312 215.46269356 146.18696625 214.73514175 146.18669128 C50.10867713 146.10867713 50.10867713 146.10867713 0 96 C-0.18841754 92.95641474 -0.25163081 90.00444765 -0.22705078 86.96044922 C-0.22734283 86.02381439 -0.22763489 85.08717957 -0.22793579 84.12216187 C-0.22653885 81.01624389 -0.21096049 77.91056374 -0.1953125 74.8046875 C-0.19158367 72.65520356 -0.18873608 70.50571793 -0.18673706 68.35623169 C-0.17909039 62.69101288 -0.15943303 57.02589617 -0.1373291 51.36071777 C-0.11689291 45.58294048 -0.10774011 39.80514674 -0.09765625 34.02734375 C-0.07618812 22.68485091 -0.04203973 11.34243393 0 0 Z " fill="#6b7280" transform="translate(40,223)"/>
<path d="M0 0 C4.54712815 1.44782016 8.2848522 3.21495222 12.375 5.6875 C88.49237016 50.09685359 198.17649041 46.24244454 362.42578125 27.78515625 C385.33529998 21.73799133 408.39266818 13.98171914 428.35546875 0.9609375 C430 0 430 0 432 0 C432.23208557 12.36100361 432.40957666 24.7214859 432.51812172 37.08422756 C432.57022929 42.8254099 432.64085846 48.56509773 432.75439453 54.30541992 C432.86335439 59.84930577 432.92290455 65.39175791 432.94877243 70.93663216 C432.96719662 73.04785796 433.00317788 75.15900852 433.05730057 77.2696209 C433.46423219 93.80186699 433.46423219 93.80186699 429.82174683 99.27003479 C427.31776123 101.560461 424.93039199 103.30574274 422 105 C420.91269474 105.78065055 419.82649574 106.56284821 418.7421875 107.34765625 C415.51804576 109.2759917 412.28643123 111.18009937 409 113 C408.39945801 113.33386719 407.79891602 113.66773438 407.18017578 114.01171875 C352.22476715 144.07378142 281.77635377 146.44486725 220.58203125 146.26074219 C216.76442096 146.24934877 212.94708978 146.25614714 209.12948895 146.26761913 C182.72926927 146.33482111 156.42216739 145.32228587 130.1875 142.1875 C129.47427582 142.10385193 128.76105164 142.02020386 128.0262146 141.934021 C88.01333208 137.21035034 39.90635071 129.73912725 8 103 C7.02946056 102.30857359 7.02946056 102.30857359 6.03931427 101.60317898 C0.44657067 97.33147653 0.44657067 97.33147653 -0.72822571 93.82875252 C-0.98184946 91.31750616 -0.9913657 88.91556605 -0.90820312 86.39282227 C-0.90937134 85.45545731 -0.91053955 84.51809235 -0.91174316 83.55232239 C-0.90619545 80.47214503 -0.84410196 77.39590186 -0.78125 74.31640625 C-0.76631965 72.17408869 -0.75493638 70.03174373 -0.74694824 67.88938904 C-0.71647712 62.26461698 -0.6379559 56.64151106 -0.54931641 51.01739502 C-0.46731734 45.27289365 -0.43090664 39.52812169 -0.390625 33.78320312 C-0.30495805 22.52140541 -0.16851069 11.26084152 0 0 Z " fill="#6b7280" transform="translate(40,100)"/>
<path d="M0 0 C1.48813404 -0.00702345 2.97626778 -0.01411025 4.46440125 -0.02125549 C9.19241777 -0.04064708 13.92038521 -0.04568942 18.6484375 -0.046875 C19.85676554 -0.04753778 19.85676554 -0.04753778 21.08950424 -0.04821396 C45.51621939 -0.05524054 69.74817598 0.21266329 94.0234375 3.203125 C95.11779114 3.3339447 95.11779114 3.3339447 96.23425293 3.46740723 C140.35938566 8.74573728 198.16671157 15.75686015 228.98828125 51.48046875 C233.23829906 57.22682534 236.5326661 65.06368816 235.8125 72.33203125 C230.62113505 84.64224813 208.55541596 93.44241955 196.9609375 98.265625 C148.44948916 117.6387034 94.10574711 123.26972119 42.171875 123.40625 C40.51216609 123.4132302 38.85245744 123.42027115 37.19274902 123.42736816 C31.92797506 123.44661462 26.66324283 123.45154232 21.3984375 123.453125 C20.05542446 123.45400871 20.05542446 123.45400871 18.68527985 123.45491028 C-7.64407155 123.46714603 -33.79272314 123.25464956 -59.9765625 120.203125 C-61.31110351 120.05626846 -62.6457397 119.91027428 -63.98046875 119.76513672 C-108.02320214 114.86728102 -158.5790626 106.61051492 -192.9765625 76.203125 C-193.56824219 75.75839844 -194.15992188 75.31367187 -194.76953125 74.85546875 C-196.67563965 72.2461359 -196.01884157 70.26104854 -195.5390625 67.140625 C-193.26337882 54.78887204 -185.80959452 46.24162336 -175.8828125 38.921875 C-127.94375345 6.07344215 -56.69067674 0.16668191 0 0 Z " fill="#6b7280" transform="translate(235.9765625,-0.203125)"/>
</svg>
