<?xml version="1.0" encoding="UTF-8"?>
<svg version="1.1" xmlns="http://www.w3.org/2000/svg" width="512" height="512">
<path d="M0 0 C1.36444622 0.15259822 2.72903269 0.30394712 4.09375 0.45410156 C47.7810648 5.29515451 105.0452197 12.00716034 138.02734375 44.49609375 C144.65406585 52.90743804 144.5709174 60.67092434 144.50793457 70.94189453 C144.51254631 72.57652402 144.51890106 74.21114937 144.52684355 75.84576607 C144.54352254 80.32738293 144.53529703 84.80865853 144.52289867 89.29027653 C144.51384466 94.12743998 144.52781966 98.96454496 144.53881836 103.80169678 C144.55660439 113.27363689 144.5527632 122.74545022 144.5411678 132.21739531 C144.53213409 139.91546895 144.53090921 147.61350705 144.53526306 155.31158447 C144.53587599 156.40723382 144.53648893 157.50288317 144.53712043 158.63173401 C144.53839933 160.8575279 144.53969619 163.08332178 144.5410108 165.30911565 C144.55241684 186.18016609 144.53930249 207.05114626 144.51780933 227.92218518 C144.49993834 245.83032011 144.50304244 263.73835132 144.52148438 281.64648438 C144.54289063 302.44287511 144.5513182 323.23920426 144.53903532 344.03560448 C144.53776112 346.25320815 144.53650364 348.47081183 144.53526306 350.68841553 C144.53433741 352.32506863 144.53433741 352.32506863 144.53339306 353.99478543 C144.52993943 361.68357072 144.53576879 369.37231695 144.54518127 377.06109619 C144.5563999 386.43122455 144.55336402 395.80121888 144.5320583 405.17133188 C144.5215461 409.95208265 144.51742901 414.73260995 144.53065491 419.51335907 C144.54258104 423.89048196 144.53601263 428.26717438 144.5147447 432.64425826 C144.51027958 434.22691922 144.51254293 435.80961661 144.52224785 437.39225411 C144.5763169 446.94283605 144.11416858 453.63780957 138.1328125 461.43359375 C106.17376365 493.33046547 50.11627948 499.89123273 7.5625 505.1875 C6.34046875 505.34234863 5.1184375 505.49719727 3.859375 505.65673828 C-21.53870653 508.66148042 -46.88726172 509.37705891 -72.4299736 509.31805801 C-74.91410131 509.31241112 -77.39822217 509.30959478 -79.88235474 509.30697632 C-104.02770731 509.26998661 -128.00107874 508.89389236 -152 506 C-152.74570251 505.91278687 -153.49140503 505.82557373 -154.25970459 505.73571777 C-263.57818103 492.9470094 -263.57818103 492.9470094 -289.875 460.4375 C-293.93536833 455.14013574 -295.24939455 450.9113374 -295.25726891 444.22262859 C-295.26252802 443.21467595 -295.26252802 443.21467595 -295.26789337 442.18636063 C-295.27721119 439.9304477 -295.27228315 437.67479271 -295.26742554 435.41886902 C-295.27116161 433.7868322 -295.27576296 432.15479717 -295.28115618 430.52276498 C-295.29340694 426.03446293 -295.29312327 421.5462353 -295.29076743 417.05792034 C-295.29035979 412.2186708 -295.30139338 407.37944529 -295.31088257 402.54020691 C-295.32750489 393.0578659 -295.33299267 383.57554976 -295.33410732 374.0931954 C-295.33505721 366.38647575 -295.33916452 358.67976431 -295.34550858 350.97304726 C-295.3631243 329.12944789 -295.37234692 307.28586818 -295.37084763 285.44226166 C-295.37076772 284.26434021 -295.3706878 283.08641877 -295.37060547 281.87280273 C-295.37052371 280.69344528 -295.37044195 279.51408782 -295.37035771 278.29899225 C-295.3695447 259.18316207 -295.38868523 240.06741065 -295.4168822 220.95160326 C-295.44559737 201.32986539 -295.45942325 181.70816595 -295.45769465 162.08640653 C-295.45703028 151.06777039 -295.46254322 140.04921683 -295.48405075 129.03059959 C-295.50224455 119.64943229 -295.50662469 110.268385 -295.4930319 100.88720771 C-295.48649318 96.10039298 -295.48641768 91.31380863 -295.5037384 86.52701569 C-295.51943419 82.14423698 -295.51664135 77.76187198 -295.49917014 73.37910358 C-295.49609253 71.79432797 -295.49976126 70.20952175 -295.51089029 68.62478223 C-295.58660095 57.07828981 -294.08732137 49.58295691 -286 41 C-250.21005818 11.62095044 -196.36329031 4.90374263 -152 0 C-150.71174316 -0.15098145 -149.42348633 -0.30196289 -148.09619141 -0.45751953 C-99.81844049 -6.00128907 -48.23877964 -5.75023759 0 0 Z " fill="#2387FF" transform="translate(332,3)"/>
<path d="M0 0 C1.36444622 0.15259822 2.72903269 0.30394712 4.09375 0.45410156 C47.7810648 5.29515451 105.0452197 12.00716034 138.02734375 44.49609375 C144.16903793 52.29178874 144.58409041 58.74862554 144.53344727 68.41748047 C144.54051575 69.76203351 144.54926466 71.1065786 144.55955505 72.45111084 C144.58195761 76.08355577 144.57913064 79.7155631 144.57023358 83.34805059 C144.56510346 86.3895809 144.57243277 89.43103044 144.57970566 92.47255242 C144.59667637 99.65316092 144.59316835 106.83355677 144.57641602 114.01416016 C144.55950415 121.40110292 144.57532231 128.78745433 144.6076389 136.1743325 C144.63440543 142.53557586 144.64159164 148.89663594 144.63312382 155.25792992 C144.62821423 159.04881487 144.63030212 162.8393444 144.65091133 166.63018417 C144.66937981 170.19770939 144.66317602 173.76439013 144.63871193 177.33187103 C144.63138416 179.25025765 144.64847365 181.16869002 144.66653442 183.08700562 C144.5608729 192.80097062 142.0775913 200.6856429 135 207.625 C113.52541316 227.75299559 80.82555649 234.88297684 53 241 C52.30181152 241.15807129 51.60362305 241.31614258 50.88427734 241.47900391 C29.31486866 246.34656338 6.98787835 248.88883351 -15 251 C-16.65080566 251.15879639 -16.65080566 251.15879639 -18.33496094 251.32080078 C-73.10715384 256.27368896 -128.74862569 253.55649478 -183 245 C-184.10166504 244.83387207 -185.20333008 244.66774414 -186.33837891 244.49658203 C-219.20982885 239.53356554 -269.55094487 230.7102052 -291 202 C-295.38303061 194.66201464 -295.57209307 187.82279388 -295.51757812 179.43725586 C-295.52300847 178.08931221 -295.53013623 176.7413745 -295.53881836 175.39344788 C-295.55694487 171.75704596 -295.55002942 168.12110153 -295.53730202 164.48469234 C-295.52712063 160.66609836 -295.53658168 156.84754156 -295.54284668 153.02894592 C-295.55010734 146.61940533 -295.54057621 140.21004959 -295.52148438 133.80053711 C-295.49970923 126.40508121 -295.50677779 119.01006636 -295.52879 111.6146211 C-295.54697819 105.24745009 -295.54948596 98.88041136 -295.53903532 92.51322275 C-295.53282029 88.71800516 -295.53190971 84.9229945 -295.54518127 81.12779045 C-295.55678961 77.55952501 -295.54862447 73.99182499 -295.52560425 70.42362022 C-295.51784732 68.50010314 -295.5296298 66.57653787 -295.54211426 64.65304565 C-295.44476939 54.64916565 -292.87536839 48.29672879 -286 41 C-250.21005818 11.62095044 -196.36329031 4.90374263 -152 0 C-150.71174316 -0.15098145 -149.42348633 -0.30196289 -148.09619141 -0.45751953 C-99.81844049 -6.00128907 -48.23877964 -5.75023759 0 0 Z " fill="#98C6FF" transform="translate(332,3)"/>
<path d="M0 0 C1.05035067 1.57552601 2.09240942 3.15920724 3.04296875 4.796875 C16.97604289 28.57345203 50.45064904 37.03850511 75.24609375 43.73046875 C91.30217182 47.8519116 107.61834941 50.54481559 124 53 C125.47194824 53.22598877 125.47194824 53.22598877 126.97363281 53.45654297 C197.30931581 64.04806387 274.36529904 63.34773196 344 48 C344.9703418 47.78762695 345.94068359 47.57525391 346.94042969 47.35644531 C395.21660407 37.35557084 395.21660407 37.35557084 433.66015625 8.75390625 C434.84816027 6.86626138 435.93621205 4.95914281 437 3 C437.66 2.01 438.32 1.02 439 0 C439.11703002 16.51636051 439.20508399 33.03258561 439.25906086 49.54926109 C439.28479437 57.21901726 439.3198512 64.88851514 439.37719727 72.55810547 C439.42718187 79.24637109 439.45932627 85.93444956 439.47044247 92.62289679 C439.47693601 96.16137412 439.49209412 99.69931626 439.52865028 103.23762131 C439.56921895 107.19676155 439.56993979 111.15538799 439.56762695 115.11474609 C439.58560333 116.27568787 439.60357971 117.43662964 439.62210083 118.63275146 C439.56661951 127.43733205 437.27413846 133.63874526 432 140.6640625 C410.10878254 162.12771712 376.97536538 169.63020893 348 176 C347.30181152 176.15807129 346.60362305 176.31614258 345.88427734 176.47900391 C322.63054766 181.7266634 298.71320922 184.02957839 275 186 C273.77877441 186.10586426 272.55754883 186.21172852 271.29931641 186.32080078 C236.12069408 189.28642679 200.41957315 189.17087189 165.24267578 186.26025391 C162.33828439 186.02715037 159.4360023 185.83742084 156.52734375 185.66796875 C107.35726657 182.51321071 42.89359475 174.56217731 5.75390625 139.34765625 C0.07406969 131.74502423 -0.56866772 124.50548253 -0.45410156 115.22827148 C-0.45497772 113.35361458 -0.45497772 113.35361458 -0.45587158 111.44108582 C-0.45357492 108.04051192 -0.4336229 104.64092938 -0.40557575 101.24053073 C-0.38043928 97.67715341 -0.37821052 94.11376053 -0.37347412 90.55030823 C-0.36108007 83.81436528 -0.3283074 77.07868441 -0.28807616 70.34285647 C-0.24324665 62.66931215 -0.22134343 54.9957548 -0.20129442 47.32211196 C-0.15957112 31.54792328 -0.08928934 15.77399554 0 0 Z " fill="#57A3FF" transform="translate(37,196)"/>
<path d="M0 0 C1.36444622 0.15259822 2.72903269 0.30394712 4.09375 0.45410156 C110.95954243 12.2960507 110.95954243 12.2960507 140 47 C143.49939016 51.84239936 144.73008137 56.4552927 144.4375 62.42578125 C142.67340605 72.80558407 135.34129439 80.20300558 127.0546875 86.09375 C57.44556316 130.56149528 -51.265176 130.26131205 -130.84667969 123.2734375 C-133.87820327 123.0105615 -136.9103327 122.78138335 -139.9453125 122.5625 C-186.75681758 119.0583222 -254.99961817 112.95460142 -289 76 C-294.13951534 69.27994554 -295.89401947 63.35659868 -295 55 C-290.83060446 42.10659748 -278.67995987 34.87513272 -267.34130859 28.87426758 C-231.94206219 10.88455867 -191.07750905 4.31947327 -152 0 C-150.71174316 -0.15098145 -149.42348633 -0.30196289 -148.09619141 -0.45751953 C-99.81844049 -6.00128907 -48.23877964 -5.75023759 0 0 Z " fill="#BCD8FF" transform="translate(332,3)"/>
</svg>
