<?xml version="1.0" encoding="UTF-8"?>
<svg version="1.1" xmlns="http://www.w3.org/2000/svg" width="512" height="512">
<path d="M0 0 C0.99 0.03287109 0.99 0.03287109 2 0.06640625 C2.66 0.06511719 3.32 0.06382813 4 0.0625 C6.98684716 0.90838445 8.09713748 2.17656894 10 4.62890625 C10.38856456 7.38461301 10.53094075 9.73881144 10.49219131 12.49249649 C10.49680669 13.29402425 10.50142207 14.095552 10.50617731 14.92136848 C10.51681837 17.62419857 10.49877729 20.32608757 10.48101807 23.02886963 C10.48276138 24.9792299 10.48626187 26.92958926 10.49137473 28.87994361 C10.50034563 34.25256824 10.484282 39.62487569 10.46426249 44.99745989 C10.4470323 50.78612815 10.45283104 56.57477768 10.45587158 62.36346436 C10.45797175 72.39712024 10.44539283 82.4306723 10.42292023 92.46430206 C10.39044952 106.97133447 10.37999826 121.47831653 10.37496826 135.98538134 C10.36656376 159.52055585 10.33960638 183.05567627 10.30175781 206.59082031 C10.26502794 229.4567028 10.23668964 252.32257049 10.21972656 275.18847656 C10.21920046 275.89314485 10.21867435 276.59781313 10.21813231 277.323835 C10.21285828 284.40032118 10.20775502 291.47680747 10.20277687 298.55329386 C10.19263167 312.9692662 10.18134666 327.38523757 10.16937256 341.8012085 C10.1688234 342.46405011 10.16827424 343.12689172 10.16770844 343.80981944 C10.13089784 388.08287098 10.067433 432.35589212 10 476.62890625 C10.98067076 476.62738737 11.96134152 476.62586849 12.97172958 476.62430358 C71.0409278 476.53471777 129.11012496 476.46619275 187.17937743 476.42464493 C194.1453826 476.41965543 201.11138762 476.41446923 208.07739258 476.40917969 C208.77060731 476.40865665 209.46382204 476.40813362 210.17804328 476.40759473 C232.661935 476.39053821 255.1457866 476.3604847 277.629654 476.32371737 C301.38191694 476.28494625 325.13414882 476.26092914 348.88644332 476.25255227 C363.12185745 476.24705247 377.35715645 476.22965626 391.59253516 476.19724038 C401.34246268 476.17616388 411.09233032 476.16969058 420.84227899 476.17490074 C426.47499589 476.17747324 432.10751102 476.17341608 437.74019241 476.15208435 C442.89018422 476.1327221 448.0398372 476.1315686 453.18984409 476.14531067 C455.05934007 476.14701088 456.92885657 476.14184954 458.79831169 476.12937352 C461.32742893 476.11346778 463.85530105 476.1218805 466.38439655 476.13671494 C467.1209318 476.12620688 467.85746704 476.11569883 468.61632153 476.10487235 C471.84614311 476.14808666 473.55177077 476.20678321 475.95270556 478.46788049 C477.41228507 481.47963039 477.37175274 483.91889955 477.36328125 487.2578125 C477.36263672 488.53978516 477.36199219 489.82175781 477.36132812 491.14257812 C477.35302979 491.80700928 477.34473145 492.47144043 477.33618164 493.15600586 C477.31253509 495.18839014 477.31563234 497.21946569 477.32226562 499.25195312 C477.26703644 509.22835158 477.26703644 509.22835158 475 512.62890625 C472.23332003 512.92917256 469.68939441 513.0307605 466.91957092 513.00642967 C465.64566279 513.01297016 465.64566279 513.01297016 464.34601915 513.01964277 C461.46888435 513.03068681 458.59222006 513.02013473 455.71508789 513.00985718 C453.64413487 513.01331013 451.57318367 513.01807224 449.50223637 513.02403891 C443.78697676 513.03662838 438.07186634 513.0303426 432.35660601 513.02108026 C426.20247895 513.01432246 420.04837845 513.02475468 413.89425659 513.03302002 C402.5269583 513.0456206 391.15972122 513.04448415 379.79242441 513.03628561 C369.29252951 513.02874953 358.79265217 513.02676389 348.29275513 513.03035355 C347.24947759 513.03069728 347.24947759 513.03069728 346.18512375 513.03104796 C343.3620413 513.03198192 340.53895886 513.03293711 337.71587643 513.03392725 C311.21389902 513.04311162 284.71195213 513.0347722 258.20997943 513.01863656 C234.64615483 513.00439892 211.08237886 513.00567277 187.51855469 513.02001953 C161.06615547 513.03607102 134.61378323 513.04246036 108.16137981 513.03318274 C105.34333484 513.03222054 102.52528986 513.03128202 99.70724487 513.03035355 C99.01333118 513.03011631 98.31941748 513.02987908 97.6044761 513.02963466 C87.1092043 513.02621711 76.61395197 513.03022261 66.11868286 513.03779221 C54.18934905 513.04635302 42.26007272 513.04397175 30.33074117 513.02794997 C24.23844467 513.02003869 18.14624714 513.01702405 12.05395126 513.02689743 C6.48531746 513.03578599 0.91687509 513.03100869 -4.65174115 513.01496477 C-6.67458185 513.01159204 -8.69743847 513.01336628 -10.72026908 513.02059214 C-13.45360513 513.02961287 -16.18627092 513.02046295 -18.91957092 513.00642967 C-19.71912661 513.01345317 -20.5186823 513.02047667 -21.34246695 513.027713 C-23.53506565 513.00495374 -23.53506565 513.00495374 -27 512.62890625 C-30.19124845 507.84203357 -29.33326278 502.34719384 -29.31567383 496.75 C-29.31251091 494.63619575 -29.33599013 492.52378779 -29.36132812 490.41015625 C-29.36360095 489.06640801 -29.36430469 487.72265602 -29.36328125 486.37890625 C-29.36626221 485.156875 -29.36924316 483.93484375 -29.37231445 482.67578125 C-29 479.62890625 -29 479.62890625 -27.76904297 477.7253418 C-25.47929977 476.30618133 -24.01719845 476.28462857 -21.33203125 476.3359375 C-20.52741455 476.34343018 -19.72279785 476.35092285 -18.89379883 476.35864258 C-17.87697021 476.38595459 -16.8601416 476.4132666 -15.8125 476.44140625 C-12.574375 476.50328125 -9.33625 476.56515625 -6 476.62890625 C-6 465.40890625 -6 454.18890625 -6 442.62890625 C-9.63 442.62890625 -13.26 442.62890625 -17 442.62890625 C-20.69978211 440.70501955 -21.66475799 439.61367965 -23 435.69140625 C-23 432.05649331 -22.19961414 430.48025792 -20 427.62890625 C-15.81537205 425.53659227 -10.67855628 426.62890625 -6 426.62890625 C-6 413.75890625 -6 400.88890625 -6 387.62890625 C-9.96 387.62890625 -13.92 387.62890625 -18 387.62890625 C-22.89583333 382.73307292 -22.89583333 382.73307292 -23 377.62890625 C-20.86956522 373.06368886 -20.86956522 373.06368886 -18 371.62890625 C-14.04 371.62890625 -10.08 371.62890625 -6 371.62890625 C-6 358.75890625 -6 345.88890625 -6 332.62890625 C-9.96 332.62890625 -13.92 332.62890625 -18 332.62890625 C-22 329.62890625 -22 329.62890625 -23 326.25390625 C-23 322.62890625 -23 322.62890625 -21.1875 319.75390625 C-16.07764711 314.79004915 -15.23232945 316.62890625 -6 316.62890625 C-6 304.08890625 -6 291.54890625 -6 278.62890625 C-8.97 278.62890625 -11.94 278.62890625 -15 278.62890625 C-18.45154762 277.80353617 -19.60374942 277.10440695 -21.875 274.37890625 C-23.28227934 270.93889008 -23.07455528 269.15958789 -22 265.62890625 C-20.08268479 263.10153621 -19.08494591 262.65722155 -16 261.62890625 C-12.7 261.62890625 -9.4 261.62890625 -6 261.62890625 C-6 249.08890625 -6 236.54890625 -6 223.62890625 C-9.63 223.62890625 -13.26 223.62890625 -17 223.62890625 C-20.69978211 221.70501955 -21.66475799 220.61367965 -23 216.69140625 C-23 212.78514067 -21.7593951 210.38830135 -19 207.62890625 C-14.71 207.62890625 -10.42 207.62890625 -6 207.62890625 C-6 194.75890625 -6 181.88890625 -6 168.62890625 C-9.96 168.62890625 -13.92 168.62890625 -18 168.62890625 C-22.89583333 163.73307292 -22.89583333 163.73307292 -23 158.62890625 C-20.86956522 154.06368886 -20.86956522 154.06368886 -18 152.62890625 C-14.04 152.62890625 -10.08 152.62890625 -6 152.62890625 C-6 139.75890625 -6 126.88890625 -6 113.62890625 C-9.96 113.62890625 -13.92 113.62890625 -18 113.62890625 C-22 110.62890625 -22 110.62890625 -22.875 107.19140625 C-22.99585549 103.74702464 -23.01067529 102.3433179 -21 99.62890625 C-18 97.62890625 -18 97.62890625 -6 97.62890625 C-6 84.75890625 -6 71.88890625 -6 58.62890625 C-10.29 58.62890625 -14.58 58.62890625 -19 58.62890625 C-22.33169751 55.29720874 -22.81657498 54.21453184 -23 49.62890625 C-21.39588152 46.09984558 -20.25840638 44.80117717 -17 42.62890625 C-14.30078125 42.43359375 -14.30078125 42.43359375 -11.3125 42.50390625 C-10.31863281 42.52195313 -9.32476563 42.54 -8.30078125 42.55859375 C-7.16189453 42.59339844 -7.16189453 42.59339844 -6 42.62890625 C-6.02094727 41.53425049 -6.04189453 40.43959473 -6.06347656 39.31176758 C-6.13602709 35.23979845 -6.18185409 31.16788614 -6.21972656 27.09545898 C-6.23980786 25.3349445 -6.26707879 23.57449643 -6.30175781 21.81420898 C-6.35043112 19.27961823 -6.37300305 16.7459113 -6.390625 14.2109375 C-6.41127014 13.42741409 -6.43191528 12.64389069 -6.45318604 11.83662415 C-6.45473453 8.04185293 -6.15213758 5.86896292 -4.10058594 2.63183594 C-2 0.62890625 -2 0.62890625 0 0 Z " fill="#9EABBA" transform="translate(32,-0.62890625)"/>
<path d="M0 0 C5.09824493 2.95776042 9.38995564 7.38896104 11.16015625 13.10546875 C12.3746675 19.44791638 11.90747423 25.54996617 8.546875 31.125 C5.4972601 34.4848571 2.41441523 37.51142481 -1.94944763 38.94515991 C-5.02007558 40.39217142 -5.44662107 41.32897217 -6.64477539 44.44775391 C-7.17410423 45.7902269 -7.17410423 45.7902269 -7.71412659 47.15982056 C-8.07272263 48.1305954 -8.43131866 49.10137024 -8.80078125 50.1015625 C-9.18052597 51.10077728 -9.56027069 52.09999207 -9.95152283 53.12948608 C-10.74841111 55.2459638 -11.53540825 57.36618814 -12.31323242 59.48974609 C-13.50845472 62.730558 -14.75482876 65.94835755 -16.00585938 69.16796875 C-16.77404159 71.22797314 -17.53911931 73.28913842 -18.30078125 75.3515625 C-18.86600243 76.78950668 -18.86600243 76.78950668 -19.44264221 78.25650024 C-21.30467199 83.27756283 -21.30467199 83.27756283 -20.77305603 88.45489502 C-19.73699682 90.57957234 -19.73699682 90.57957234 -18.4942627 92.42721558 C-15.88504999 96.6820617 -16.76718667 102.38847754 -17.453125 107.125 C-19.42800117 112.2483468 -22.73880277 116.29640666 -27.453125 119.125 C-29.0145434 119.44286017 -30.5771925 119.75469923 -32.140625 120.0625 C-39.05470692 122.00740375 -42.16175789 127.45037462 -46.03125 133.08105469 C-48.10118843 136.05659117 -50.26980117 138.95605499 -52.43188477 141.86499023 C-54.22743753 144.28273729 -56.01177009 146.70838096 -57.79296875 149.13671875 C-60.84779733 153.3006096 -63.90496376 157.46274686 -66.96899414 161.61987305 C-68.15836925 163.23689954 -69.34381733 164.8568225 -70.52514648 166.47973633 C-73.02591048 169.90422203 -75.53094196 173.27639745 -78.296875 176.4921875 C-83.79802797 183.05527189 -85.19389867 187.36519146 -85.31640625 195.921875 C-85.55692875 201.55697353 -87.3339999 204.95919814 -91.2265625 208.9375 C-96.80765392 213.41897118 -102.10837832 213.9705492 -109.13671875 213.64453125 C-113.78441188 212.9164474 -117.14745374 211.49333802 -120.453125 208.125 C-120.9888916 207.16400391 -121.5246582 206.20300781 -122.07666016 205.21289062 C-124.96896297 201.45473919 -127.75554512 200.39427954 -132.125 199.0390625 C-132.89981216 198.77983002 -133.67462433 198.52059753 -134.47291565 198.25350952 C-137.04346415 197.39875509 -139.6226264 196.57417932 -142.203125 195.75 C-144.00866241 195.15809464 -145.81358379 194.56430722 -147.61791992 193.96875 C-150.48761956 193.02309771 -153.358124 192.08038257 -156.23161316 191.14630127 C-163.7501728 188.70190023 -171.23169759 186.15915124 -178.70703125 183.5859375 C-181.98689143 182.46430582 -185.26738468 181.3445515 -188.54821777 180.22576904 C-190.69153839 179.49247642 -192.83339494 178.7548904 -194.97375488 178.01300049 C-197.97917228 176.97359042 -200.99046898 175.95338243 -204.00390625 174.9375 C-205.35277672 174.463694 -205.35277672 174.463694 -206.72889709 173.98031616 C-207.55868576 173.70450714 -208.38847443 173.42869812 -209.2434082 173.14453125 C-209.9635762 172.89807861 -210.6837442 172.65162598 -211.42573547 172.39770508 C-214.90548099 171.92964294 -217.08697772 173.89615795 -219.953125 175.6875 C-225.14350866 178.6719706 -230.71825222 178.88736167 -236.5390625 177.69921875 C-240.69849955 176.40039071 -242.5200366 175.20941404 -244.70776367 171.43725586 C-247.00809541 168.68311627 -248.04036647 168.16448363 -251.66860962 167.81741333 C-255.90511176 168.09020067 -260.05333043 168.59601792 -264.25390625 169.19140625 C-265.8151834 169.38423997 -267.37689918 169.57355184 -268.93901062 169.75950623 C-273.04853272 170.25755552 -277.15096218 170.79994536 -281.25341797 171.35284424 C-286.2163719 172.01396854 -291.18561729 172.62552195 -296.15430737 173.24176693 C-300.02562457 173.72249629 -303.8953063 174.21114344 -307.76228333 174.72572327 C-314.7013949 175.63744927 -321.44709253 176.37561831 -328.453125 176.125 C-328.515 176.970625 -328.576875 177.81625 -328.640625 178.6875 C-329.96742233 184.30087333 -332.86043742 188.40198679 -337.765625 191.5 C-342.3906382 193.85272411 -347.16431344 194.44349765 -352.31640625 193.7265625 C-357.06194511 194.32935822 -358.71246474 197.12910415 -361.578125 200.75 C-362.72650676 202.13806695 -363.87494551 203.52608675 -365.0234375 204.9140625 C-365.59739258 205.62079102 -366.17134766 206.32751953 -366.76269531 207.05566406 C-369.27123314 210.12648535 -371.86219713 213.12373054 -374.453125 216.125 C-375.44437098 217.28224333 -376.43525376 218.43979787 -377.42578125 219.59765625 C-382.18828951 225.15365758 -386.98870174 230.67686421 -391.78564453 236.203125 C-394.07140302 238.83760389 -396.35456162 241.47433035 -398.63769531 244.11108398 C-400.27691362 246.00338207 -401.91761425 247.89438545 -403.55859375 249.78515625 C-405.29645774 251.78795572 -407.02795158 253.79546835 -408.75390625 255.80859375 C-409.37652344 256.53175781 -409.99914062 257.25492187 -410.640625 258 C-411.14980469 258.59554688 -411.65898437 259.19109375 -412.18359375 259.8046875 C-414.14031421 261.83967677 -415.4500287 262.12458716 -418.265625 262.5 C-421.453125 262.125 -421.453125 262.125 -424.328125 260 C-426.453125 257.125 -426.453125 257.125 -427.140625 254.3125 C-425.52657734 246.8291881 -418.81889 241.24157242 -413.8046875 235.7578125 C-411.45610792 233.12833968 -409.22833804 230.43188967 -407.015625 227.6875 C-403.15487363 222.913597 -399.07875425 218.39111572 -394.921875 213.875 C-392.50934396 211.18762366 -390.2205629 208.43534556 -387.953125 205.625 C-384.07939942 200.82405287 -380.00291653 196.25639249 -375.8125 191.73046875 C-375.03390625 190.87066406 -374.2553125 190.01085937 -373.453125 189.125 C-372.53273438 188.19300781 -371.61234375 187.26101563 -370.6640625 186.30078125 C-367.96891297 182.42947989 -367.96328073 179.63888719 -368.328125 175.125 C-368.81409974 168.13747127 -367.78713846 163.83750213 -363.140625 158.4375 C-357.35106185 153.45578287 -352.79284262 152.63198543 -345.29296875 152.8359375 C-340.54270611 153.31945804 -337.64481871 154.95620321 -334.27871704 158.25762939 C-330.57924545 160.70252746 -327.87823818 160.33052818 -323.68115234 159.75292969 C-322.91470901 159.66573166 -322.14826569 159.57853363 -321.3585968 159.48869324 C-318.83239253 159.19598248 -316.31133603 158.87158449 -313.7890625 158.546875 C-312.03243563 158.33735722 -310.27556347 158.12988675 -308.51846313 157.92437744 C-303.89750252 157.3785738 -299.28024077 156.80605573 -294.66326904 156.2276001 C-289.96224653 155.64294515 -285.25843835 155.08174024 -280.5546875 154.51953125 C-275.27197142 153.88759428 -269.98964644 153.25342014 -264.70956421 152.59979248 C-263.90722855 152.50090225 -263.10489288 152.40201202 -262.27824402 152.30012512 C-260.78006978 152.11513128 -259.28207109 151.92870785 -257.7842865 151.74058533 C-254.98224376 151.39538683 -252.27996072 151.125 -249.453125 151.125 C-249.34226563 150.53847656 -249.23140625 149.95195312 -249.1171875 149.34765625 C-247.59550592 144.25449849 -243.64359471 140.8347031 -239.203125 138.1875 C-232.9946187 136.42842321 -227.20971242 136.02300998 -221.203125 138.6875 C-217.12960221 141.02936331 -213.85081411 144.07030918 -211.453125 148.125 C-211.26089355 149.25370514 -211.06866211 150.38241028 -210.87060547 151.5453186 C-209.77424839 155.41890709 -209.77424839 155.41890709 -206.03710938 157.02304077 C-204.55014136 157.5360032 -203.05213131 158.01760412 -201.546875 158.47412109 C-200.73049561 158.74663696 -199.91411621 159.01915283 -199.07299805 159.29992676 C-196.37446298 160.19333073 -193.66475331 161.04568761 -190.953125 161.8984375 C-189.07664415 162.51126906 -187.2010012 163.12667176 -185.32617188 163.74453735 C-180.3897423 165.36395053 -175.44295753 166.94908376 -170.49316406 168.52709961 C-165.45255354 170.14024071 -160.42191149 171.78383672 -155.390625 173.42578125 C-149.74206183 175.26775826 -144.09258688 177.10640775 -138.43554688 178.92221069 C-137.57678955 179.19812042 -136.71803223 179.47403015 -135.83325195 179.75830078 C-134.22611797 180.27408088 -132.61855626 180.78853077 -131.01049805 181.30142212 C-125.6738152 183.0146549 -125.6738152 183.0146549 -123.453125 184.125 C-123.2675 183.403125 -123.081875 182.68125 -122.890625 181.9375 C-120.50150915 177.2631429 -116.36130748 174.76106083 -111.453125 173.125 C-109.45491772 173.03064021 -107.45355297 172.99509699 -105.453125 173 C-104.40125 172.99742187 -103.349375 172.99484375 -102.265625 172.9921875 C-99.453125 173.125 -99.453125 173.125 -96.453125 174.125 C-96.17710449 173.54266602 -95.90108398 172.96033203 -95.61669922 172.36035156 C-94.49418413 170.20387902 -93.2616611 168.32557882 -91.8359375 166.359375 C-91.31781494 165.64273682 -90.79969238 164.92609863 -90.26586914 164.18774414 C-89.70891357 163.42453857 -89.15195801 162.66133301 -88.578125 161.875 C-87.99732178 161.07505615 -87.41651855 160.2751123 -86.81811523 159.45092773 C-83.09148703 154.33218865 -79.32154847 149.24748007 -75.515625 144.1875 C-75.03843018 143.55263672 -74.56123535 142.91777344 -74.06958008 142.26367188 C-71.90904506 139.39010669 -69.74841105 136.516632 -67.58398438 133.64599609 C-65.63811943 131.06040137 -63.70117318 128.46832345 -61.765625 125.875 C-61.15275635 125.06426025 -60.5398877 124.25352051 -59.90844727 123.41821289 C-59.34182373 122.65629639 -58.7752002 121.89437988 -58.19140625 121.109375 C-57.68649658 120.43616211 -57.18158691 119.76294922 -56.66137695 119.06933594 C-55.39458258 117.03079271 -54.75189884 115.50420411 -54.453125 113.125 C-54.9275 112.320625 -55.401875 111.51625 -55.890625 110.6875 C-58.65660428 104.38106724 -58.41213479 97.22767874 -56.390625 90.6875 C-52.79253188 85.92873168 -48.36257487 81.64024356 -42.453125 80.125 C-39.140625 80 -39.140625 80 -36.453125 80.125 C-36.25074219 78.98675781 -36.04835938 77.84851563 -35.83984375 76.67578125 C-34.80883712 72.0285166 -33.25977863 67.61979295 -31.59765625 63.16796875 C-31.19762894 62.09592697 -31.19762894 62.09592697 -30.78952026 61.00222778 C-29.66646836 58.008708 -28.53514827 55.01845905 -27.39477539 52.03149414 C-26.55711638 49.83041394 -25.73289531 47.62466091 -24.91015625 45.41796875 C-24.64878372 44.74501266 -24.38741119 44.07205658 -24.11811829 43.37870789 C-22.37739892 38.75475393 -22.37739892 38.75475393 -23.453125 34.125 C-24.78122715 32.45416181 -26.11485196 30.78770287 -27.453125 29.125 C-30.12457913 24.44995528 -30.09144488 19.35922303 -29.453125 14.125 C-27.41734132 7.46243522 -23.51472885 3.62376933 -17.65625 0.01953125 C-12.33047588 -2.14288413 -5.3697294 -1.91531749 0 0 Z " fill="#8BC9FE" transform="translate(486.453125,179.875)"/>
<path d="M0 0 C4.74456178 2.7611794 7.60094743 6.18060163 9.9375 11.1875 C11.38059447 17.87821073 11.38318129 23.45415609 7.95703125 29.51953125 C4.31352839 34.59479184 -0.19883321 38.08829859 -6.375 39.375 C-12.5144649 39.94346897 -17.96611468 38.59040707 -23.13998413 35.22795105 C-26.27540663 34.03137703 -27.87800185 34.80541865 -31.02978516 35.8762207 C-32.16421051 36.25353836 -33.29863586 36.63085602 -34.46743774 37.01960754 C-36.297267 37.65378853 -36.297267 37.65378853 -38.1640625 38.30078125 C-39.43108182 38.7284945 -40.69853499 39.1549245 -41.96640015 39.5801239 C-45.30093751 40.70246497 -48.62899623 41.84294872 -51.95611572 42.98706055 C-55.34440475 44.14822771 -58.73897679 45.29071787 -62.1328125 46.43554688 C-67.08461022 48.10994633 -72.03430737 49.79031595 -76.97900391 51.4855957 C-77.97509674 51.82694046 -78.97118958 52.16828522 -79.99746704 52.51997375 C-82.34904561 53.31279562 -82.34904561 53.31279562 -84.375 54.375 C-84.74625 55.57125 -85.1175 56.7675 -85.5 58 C-87.37519304 63.26569359 -90.78660716 66.31889333 -95.375 69.375 C-99.03801688 70.82757566 -101.31624813 71.54586065 -105.20703125 70.91796875 C-108.87538445 71.44718863 -109.17110367 71.87434509 -111.34765625 74.6796875 C-112.39756001 76.18944133 -113.42627017 77.71407397 -114.4375 79.25 C-115.57229421 80.89886607 -116.70773022 82.54729058 -117.84375 84.1953125 C-118.42253906 85.04899414 -119.00132812 85.90267578 -119.59765625 86.78222656 C-122.45992695 90.9576819 -125.45345073 95.03617402 -128.4375 99.125 C-130.42937333 101.86611008 -132.41061279 104.61412355 -134.375 107.375 C-134.79281738 107.95797852 -135.21063477 108.54095703 -135.64111328 109.14160156 C-137.86495641 112.08711802 -137.86495641 112.08711802 -138.125 115.625 C-137.8775 116.5325 -137.63 117.44 -137.375 118.375 C-136.69964488 125.21148952 -137.14955653 130.78108904 -141.375 136.375 C-144.50501126 139.76082948 -147.43026775 142.22392617 -152.140625 142.58984375 C-153.12546875 142.62207031 -154.1103125 142.65429688 -155.125 142.6875 C-159.47779532 143.23910894 -161.63758389 144.30149985 -164.35546875 147.63671875 C-167.01980124 151.30100151 -169.43087053 155.12517236 -171.83203125 158.96533203 C-174.32971932 162.86599362 -177.07383184 166.57907265 -179.8125 170.3125 C-180.89142721 171.80280497 -181.96954651 173.29369517 -183.046875 174.78515625 C-185.3643478 177.98445646 -187.68868421 181.17867472 -190.015625 184.37109375 C-190.60931885 185.18779541 -191.2030127 186.00449707 -191.81469727 186.84594727 C-192.95330149 188.41206485 -194.0942979 189.97644693 -195.23803711 191.53881836 C-196.00772827 192.59854858 -196.00772827 192.59854858 -196.79296875 193.6796875 C-197.24438232 194.29827637 -197.6957959 194.91686523 -198.16088867 195.55419922 C-200.77965149 199.48155356 -201.56111961 201.89057121 -201.25 206.625 C-201.14998829 212.87573187 -202.50570968 217.2934608 -206.80078125 221.90625 C-212.19406869 226.70028328 -216.85294241 227.79203629 -223.87890625 227.625 C-230.2305634 226.98884029 -234.31105339 224.11627105 -238.375 219.375 C-238.96319016 218.12212944 -238.96319016 218.12212944 -239.56326294 216.84394836 C-242.03253296 213.47894562 -244.71389945 213.0411587 -248.61279297 212.24682617 C-249.34647095 212.08028534 -250.08014893 211.91374451 -250.83605957 211.74215698 C-253.25915005 211.19746689 -255.68753014 210.68250122 -258.1171875 210.16796875 C-259.80522499 209.79561963 -261.49289422 209.42159739 -263.1802063 209.04597473 C-266.71666195 208.26302936 -270.25566888 207.49350981 -273.79736328 206.73461914 C-278.33301262 205.76266523 -282.86338427 204.76845819 -287.39227104 203.76551342 C-291.71562516 202.80891816 -296.04125002 201.86280122 -300.3671875 200.91796875 C-301.1908569 200.73730551 -302.01452629 200.55664227 -302.86315536 200.37050438 C-305.20038302 199.86000467 -307.53907183 199.35689155 -309.87841797 198.85620117 C-310.56638458 198.70509384 -311.2543512 198.55398651 -311.96316528 198.39830017 C-318.27003399 196.89393858 -318.27003399 196.89393858 -324.2890625 198.43359375 C-324.85367188 198.88863281 -325.41828125 199.34367188 -326 199.8125 C-329.93514883 202.93747113 -332.93632448 203.51331871 -337.9375 203.5 C-338.90816406 203.50257813 -339.87882812 203.50515625 -340.87890625 203.5078125 C-343.375 203.375 -343.375 203.375 -345.375 202.375 C-345.6524707 202.95572266 -345.92994141 203.53644531 -346.21582031 204.13476562 C-347.3293865 206.2868472 -348.55064524 208.22297026 -349.921875 210.21875 C-350.42968506 210.95988037 -350.93749512 211.70101074 -351.46069336 212.46459961 C-352.00991455 213.26003174 -352.55913574 214.05546387 -353.125 214.875 C-353.70064697 215.71232666 -354.27629395 216.54965332 -354.86938477 217.41235352 C-360.73444773 225.92814909 -366.66639469 234.39702739 -372.60888672 242.85888672 C-375.53521871 247.02791872 -378.45472658 251.20172317 -381.375 255.375 C-382.53644752 257.03386173 -383.69790587 258.69271589 -384.859375 260.3515625 C-387.24663138 263.76173824 -389.63179597 267.17336513 -392.015625 270.5859375 C-394.92874109 274.75576106 -397.84796115 278.92125449 -400.77050781 283.08447266 C-402.29780071 285.26479249 -403.81734427 287.4503352 -405.3359375 289.63671875 C-406.22361655 290.90388533 -407.11161492 292.17082831 -408 293.4375 C-408.58442871 294.28610596 -408.58442871 294.28610596 -409.18066406 295.15185547 C-411.27870102 298.12515278 -413.24870858 300.47620951 -416.375 302.375 C-419.3125 302.875 -419.3125 302.875 -422.375 302.375 C-425.25 300.25 -425.25 300.25 -427.375 297.375 C-427.92736447 292.56153819 -427.02905518 290.1453284 -424.25 286.25 C-423.5178125 285.20585937 -422.785625 284.16171875 -422.03125 283.0859375 C-421.61230469 282.50166992 -421.19335938 281.91740234 -420.76171875 281.31542969 C-419.23025482 279.17245868 -417.72322232 277.01356499 -416.21875 274.8515625 C-413.23081421 270.56117118 -410.22815402 266.28132075 -407.22167969 262.00390625 C-404.26730738 257.79810495 -401.32145418 253.58635031 -398.375 249.375 C-397.20837706 247.70830272 -396.04171033 246.0416361 -394.875 244.375 C-394.2975 243.55 -393.72 242.725 -393.125 241.875 C-390.5 238.125 -390.5 238.125 -387.875 234.375 C-387.00766235 233.13592896 -387.00766235 233.13592896 -386.12280273 231.87182617 C-384.96350404 230.21570831 -383.80416203 228.55962075 -382.64477539 226.90356445 C-379.6150115 222.57575675 -376.58614317 218.24732595 -373.55859375 213.91796875 C-372.61790039 212.5731543 -372.61790039 212.5731543 -371.65820312 211.20117188 C-370.46521391 209.49563915 -369.27248732 207.78992267 -368.08007812 206.08398438 C-367.53673828 205.30732422 -366.99339844 204.53066406 -366.43359375 203.73046875 C-365.91901611 202.98724365 -365.40443848 202.24401855 -364.87426758 201.47827148 C-363.9080728 200.1228297 -362.90706071 198.7912304 -361.8659668 197.49243164 C-358.54966402 193.29621019 -357.87786982 190.73046209 -358.3125 185.4375 C-358.55704215 178.23114857 -357.67874395 173.94272349 -352.76171875 168.6328125 C-348.24545138 164.44700372 -344.18040845 162.63476004 -338 162.0625 C-332.22549025 162.56030256 -328.0119469 163.99268929 -323.5625 167.75 C-320.17639682 171.81332381 -318.12948143 175.09363002 -317.375 180.375 C-315.86933472 180.51905273 -315.86933472 180.51905273 -314.33325195 180.66601562 C-307.48144253 181.5275177 -300.77163667 183.1972007 -294.04296875 184.71875 C-292.55949683 185.05151361 -291.07595994 185.38398768 -289.59236145 185.71618652 C-286.49797906 186.40987622 -283.40416913 187.10604505 -280.31079102 187.80419922 C-276.34603025 188.69895701 -272.38023117 189.58900497 -268.41404247 190.47740936 C-265.35717005 191.16239452 -262.30067846 191.84906556 -259.24431801 192.53633118 C-257.78155437 192.86519733 -256.31871376 193.19372134 -254.85579491 193.52189636 C-252.81650396 193.97979736 -250.7776933 194.43977656 -248.73901367 194.90039062 C-246.99982918 195.29224548 -246.99982918 195.29224548 -245.22550964 195.6920166 C-242.375 196.375 -242.375 196.375 -239.375 197.375 C-239.16875 196.818125 -238.9625 196.26125 -238.75 195.6875 C-236.25090137 191.48447049 -232.81178674 189.01696854 -228.4375 187.0625 C-223.19267564 185.88509045 -218.57737627 186.26338114 -213.375 187.375 C-213.04927002 186.92398926 -212.72354004 186.47297852 -212.38793945 186.00830078 C-211.92605225 185.36876465 -211.46416504 184.72922852 -210.98828125 184.0703125 C-210.20880127 182.99100464 -210.20880127 182.99100464 -209.41357422 181.88989258 C-208.24730414 180.27509515 -207.08096112 178.66035041 -205.91455078 177.0456543 C-202.94266509 172.93137797 -199.97174942 168.81641233 -197.00390625 164.69921875 C-196.4634668 163.95067627 -195.92302734 163.20213379 -195.36621094 162.4309082 C-194.2891424 160.93586548 -193.21556619 159.43830056 -192.14550781 157.93823242 C-189.53218723 154.28830534 -186.87177552 150.71290267 -184.04296875 147.2265625 C-183.25817139 146.23499146 -183.25817139 146.23499146 -182.45751953 145.22338867 C-181.4775351 143.99140375 -180.47582199 142.7762479 -179.44873047 141.58325195 C-177.54358873 139.1568922 -176.3162783 137.23993726 -176.52929688 134.10229492 C-177.03044776 131.74328888 -177.03044776 131.74328888 -177.74047852 129.54541016 C-179.28046737 124.27780687 -179.0322797 119.19867648 -176.8125 114.1875 C-173.88398477 109.00309671 -169.83799349 105.55295341 -164.5 103 C-161.63347636 102.42669527 -159.88787173 102.50336843 -157.04296875 102.76953125 C-154.34932238 102.77934616 -152.90046439 102.76184306 -150.71289062 101.15136719 C-149.16751978 99.32434348 -147.86084876 97.447674 -146.5625 95.4375 C-146.0667749 94.724729 -145.5710498 94.01195801 -145.06030273 93.27758789 C-144.01252787 91.76680825 -142.97735993 90.24721784 -141.95410156 88.71972656 C-139.8596505 85.60978408 -137.68087284 82.56341551 -135.50317383 79.51147461 C-133.55760612 76.77894252 -131.63314982 74.03228413 -129.72192383 71.27563477 C-128.80356872 69.97975031 -127.85930391 68.70193546 -126.89331055 67.44116211 C-125.64983389 65.80380652 -124.50386365 64.09338133 -123.375 62.375 C-124.00599646 58.95496259 -124.00599646 58.95496259 -125.375 55.375 C-126.21429118 48.54876505 -125.45412501 43.01046809 -121.375 37.375 C-117.58461997 33.29385109 -113.31653705 30.75313481 -107.76171875 30.0390625 C-101.37942299 29.94669932 -96.69573467 30.72116215 -91.375 34.375 C-90.715 35.035 -90.055 35.695 -89.375 36.375 C-82.3752137 35.22443384 -75.76748675 32.96211732 -69.06640625 30.6796875 C-68.01847397 30.32738068 -66.97054169 29.97507385 -65.89085388 29.61209106 C-62.57159026 28.49572618 -59.25439446 27.37338264 -55.9375 26.25 C-52.59542667 25.12004834 -49.25291897 23.99145295 -45.90916443 22.8664856 C-43.83478279 22.16842086 -41.76139477 21.46739518 -39.68910217 20.76315308 C-38.75730637 20.44927643 -37.82551056 20.13539978 -36.86547852 19.81201172 C-36.04435074 19.53380585 -35.22322296 19.25559998 -34.37721252 18.96896362 C-32.375 18.375 -32.375 18.375 -30.375 18.375 C-30.33375 17.22 -30.2925 16.065 -30.25 14.875 C-29.4746161 8.88436276 -26.30108717 4.64942584 -21.5859375 0.984375 C-14.9711192 -2.88107437 -6.97042716 -3.13011635 0 0 Z " fill="#CB97E7" transform="translate(487.375,31.625)"/>
<path d="M0 0 C0.99 0.03287109 0.99 0.03287109 2 0.06640625 C2.66 0.06511719 3.32 0.06382813 4 0.0625 C6.98684716 0.90838445 8.09713748 2.17656894 10 4.62890625 C10.38856456 7.38461301 10.53094075 9.73881144 10.49219131 12.49249649 C10.49680669 13.29402425 10.50142207 14.095552 10.50617731 14.92136848 C10.51681837 17.62419857 10.49877729 20.32608757 10.48101807 23.02886963 C10.48276138 24.9792299 10.48626187 26.92958926 10.49137473 28.87994361 C10.50034563 34.25256824 10.484282 39.62487569 10.46426249 44.99745989 C10.4470323 50.78612815 10.45283104 56.57477768 10.45587158 62.36346436 C10.45797175 72.39712024 10.44539283 82.4306723 10.42292023 92.46430206 C10.39044952 106.97133447 10.37999826 121.47831653 10.37496826 135.98538134 C10.36656376 159.52055585 10.33960638 183.05567627 10.30175781 206.59082031 C10.26502794 229.4567028 10.23668964 252.32257049 10.21972656 275.18847656 C10.21920046 275.89314485 10.21867435 276.59781313 10.21813231 277.323835 C10.21285828 284.40032118 10.20775502 291.47680747 10.20277687 298.55329386 C10.19263167 312.9692662 10.18134666 327.38523757 10.16937256 341.8012085 C10.1688234 342.46405011 10.16827424 343.12689172 10.16770844 343.80981944 C10.13089784 388.08287125 10.067209 432.35589158 10 476.62890625 C4.72 476.62890625 -0.56 476.62890625 -6 476.62890625 C-6 465.40890625 -6 454.18890625 -6 442.62890625 C-9.63 442.62890625 -13.26 442.62890625 -17 442.62890625 C-20.69978211 440.70501955 -21.66475799 439.61367965 -23 435.69140625 C-23 432.05649331 -22.19961414 430.48025792 -20 427.62890625 C-15.81537205 425.53659227 -10.67855628 426.62890625 -6 426.62890625 C-6 413.75890625 -6 400.88890625 -6 387.62890625 C-9.96 387.62890625 -13.92 387.62890625 -18 387.62890625 C-22.89583333 382.73307292 -22.89583333 382.73307292 -23 377.62890625 C-20.86956522 373.06368886 -20.86956522 373.06368886 -18 371.62890625 C-14.04 371.62890625 -10.08 371.62890625 -6 371.62890625 C-6 358.75890625 -6 345.88890625 -6 332.62890625 C-9.96 332.62890625 -13.92 332.62890625 -18 332.62890625 C-22 329.62890625 -22 329.62890625 -23 326.25390625 C-23 322.62890625 -23 322.62890625 -21.1875 319.75390625 C-16.07764711 314.79004915 -15.23232945 316.62890625 -6 316.62890625 C-6 304.08890625 -6 291.54890625 -6 278.62890625 C-8.97 278.62890625 -11.94 278.62890625 -15 278.62890625 C-18.45154762 277.80353617 -19.60374942 277.10440695 -21.875 274.37890625 C-23.28227934 270.93889008 -23.07455528 269.15958789 -22 265.62890625 C-20.08268479 263.10153621 -19.08494591 262.65722155 -16 261.62890625 C-12.7 261.62890625 -9.4 261.62890625 -6 261.62890625 C-6 249.08890625 -6 236.54890625 -6 223.62890625 C-9.63 223.62890625 -13.26 223.62890625 -17 223.62890625 C-20.69978211 221.70501955 -21.66475799 220.61367965 -23 216.69140625 C-23 212.78514067 -21.7593951 210.38830135 -19 207.62890625 C-14.71 207.62890625 -10.42 207.62890625 -6 207.62890625 C-6 194.75890625 -6 181.88890625 -6 168.62890625 C-9.96 168.62890625 -13.92 168.62890625 -18 168.62890625 C-22.89583333 163.73307292 -22.89583333 163.73307292 -23 158.62890625 C-20.86956522 154.06368886 -20.86956522 154.06368886 -18 152.62890625 C-14.04 152.62890625 -10.08 152.62890625 -6 152.62890625 C-6 139.75890625 -6 126.88890625 -6 113.62890625 C-9.96 113.62890625 -13.92 113.62890625 -18 113.62890625 C-22 110.62890625 -22 110.62890625 -22.875 107.19140625 C-22.99585549 103.74702464 -23.01067529 102.3433179 -21 99.62890625 C-18 97.62890625 -18 97.62890625 -6 97.62890625 C-6 84.75890625 -6 71.88890625 -6 58.62890625 C-10.29 58.62890625 -14.58 58.62890625 -19 58.62890625 C-22.33169751 55.29720874 -22.81657498 54.21453184 -23 49.62890625 C-21.39588152 46.09984558 -20.25840638 44.80117717 -17 42.62890625 C-14.30078125 42.43359375 -14.30078125 42.43359375 -11.3125 42.50390625 C-10.31863281 42.52195313 -9.32476562 42.54 -8.30078125 42.55859375 C-7.16189453 42.59339844 -7.16189453 42.59339844 -6 42.62890625 C-6.02094727 41.53425049 -6.04189453 40.43959473 -6.06347656 39.31176758 C-6.13602709 35.23979845 -6.18185409 31.16788614 -6.21972656 27.09545898 C-6.23980786 25.3349445 -6.26707879 23.57449643 -6.30175781 21.81420898 C-6.35043112 19.27961823 -6.37300305 16.7459113 -6.390625 14.2109375 C-6.41127014 13.42741409 -6.43191528 12.64389069 -6.45318604 11.83662415 C-6.45473453 8.04185293 -6.15213758 5.86896292 -4.10058594 2.63183594 C-2 0.62890625 -2 0.62890625 0 0 Z " fill="#798C98" transform="translate(32,-0.62890625)"/>
<path d="M0 0 C5.09824493 2.95776042 9.38995564 7.38896104 11.16015625 13.10546875 C12.3746675 19.44791638 11.90747423 25.54996617 8.546875 31.125 C5.4972601 34.4848571 2.41441523 37.51142481 -1.94944763 38.94515991 C-5.02007558 40.39217142 -5.44662107 41.32897217 -6.64477539 44.44775391 C-6.99766129 45.3427359 -7.35054718 46.2377179 -7.71412659 47.15982056 C-8.25202065 48.61598282 -8.25202065 48.61598282 -8.80078125 50.1015625 C-9.37039833 51.60038467 -9.37039833 51.60038467 -9.95152283 53.12948608 C-10.74841111 55.2459638 -11.53540825 57.36618814 -12.31323242 59.48974609 C-13.50845472 62.730558 -14.75482876 65.94835755 -16.00585938 69.16796875 C-16.77404159 71.22797314 -17.53911931 73.28913842 -18.30078125 75.3515625 C-18.67759537 76.31019196 -19.05440948 77.26882141 -19.44264221 78.25650024 C-21.30467199 83.27756283 -21.30467199 83.27756283 -20.77305603 88.45489502 C-19.73699682 90.57957234 -19.73699682 90.57957234 -18.4942627 92.42721558 C-15.88504999 96.6820617 -16.76718667 102.38847754 -17.453125 107.125 C-19.42800117 112.2483468 -22.73880277 116.29640666 -27.453125 119.125 C-29.0145434 119.44286017 -30.5771925 119.75469923 -32.140625 120.0625 C-39.05470692 122.00740375 -42.16175789 127.45037462 -46.03125 133.08105469 C-48.10118843 136.05659117 -50.26980117 138.95605499 -52.43188477 141.86499023 C-54.22743753 144.28273729 -56.01177009 146.70838096 -57.79296875 149.13671875 C-60.84779733 153.3006096 -63.90496376 157.46274686 -66.96899414 161.61987305 C-68.15836925 163.23689954 -69.34381733 164.8568225 -70.52514648 166.47973633 C-73.02591048 169.90422203 -75.53094196 173.27639745 -78.296875 176.4921875 C-83.79802797 183.05527189 -85.19389867 187.36519146 -85.31640625 195.921875 C-85.55692875 201.55697353 -87.3339999 204.95919814 -91.2265625 208.9375 C-96.80765392 213.41897118 -102.10837832 213.9705492 -109.13671875 213.64453125 C-115.50805713 212.64642995 -118.94193725 210.02367179 -122.890625 205.0625 C-126.10849644 199.01290169 -126.54029174 192.27719103 -124.8046875 185.6484375 C-122.54901271 179.88393526 -119.77267407 177.22001037 -114.453125 174.125 C-111.23030087 173.05072529 -108.83801347 172.9917037 -105.453125 173 C-104.40125 172.99742187 -103.349375 172.99484375 -102.265625 172.9921875 C-99.453125 173.125 -99.453125 173.125 -96.453125 174.125 C-96.03909424 173.25149902 -96.03909424 173.25149902 -95.61669922 172.36035156 C-94.49418413 170.20387902 -93.2616611 168.32557882 -91.8359375 166.359375 C-91.31781494 165.64273682 -90.79969238 164.92609863 -90.26586914 164.18774414 C-89.70891357 163.42453857 -89.15195801 162.66133301 -88.578125 161.875 C-87.99732178 161.07505615 -87.41651855 160.2751123 -86.81811523 159.45092773 C-83.09148703 154.33218865 -79.32154847 149.24748007 -75.515625 144.1875 C-75.03843018 143.55263672 -74.56123535 142.91777344 -74.06958008 142.26367188 C-71.90904506 139.39010669 -69.74841105 136.516632 -67.58398438 133.64599609 C-65.63811943 131.06040137 -63.70117318 128.46832345 -61.765625 125.875 C-61.15275635 125.06426025 -60.5398877 124.25352051 -59.90844727 123.41821289 C-59.05851196 122.27533813 -59.05851196 122.27533813 -58.19140625 121.109375 C-57.43404175 120.09955566 -57.43404175 120.09955566 -56.66137695 119.06933594 C-55.39458258 117.03079271 -54.75189884 115.50420411 -54.453125 113.125 C-54.9275 112.320625 -55.401875 111.51625 -55.890625 110.6875 C-58.65660428 104.38106724 -58.41213479 97.22767874 -56.390625 90.6875 C-52.79253188 85.92873168 -48.36257487 81.64024356 -42.453125 80.125 C-39.140625 80 -39.140625 80 -36.453125 80.125 C-36.25074219 78.98675781 -36.04835938 77.84851563 -35.83984375 76.67578125 C-34.80883712 72.0285166 -33.25977863 67.61979295 -31.59765625 63.16796875 C-31.33097137 62.45327423 -31.0642865 61.73857971 -30.78952026 61.00222778 C-29.66646836 58.008708 -28.53514827 55.01845905 -27.39477539 52.03149414 C-26.55711638 49.83041394 -25.73289531 47.62466091 -24.91015625 45.41796875 C-24.64878372 44.74501266 -24.38741119 44.07205658 -24.11811829 43.37870789 C-22.37739892 38.75475393 -22.37739892 38.75475393 -23.453125 34.125 C-24.78122715 32.45416181 -26.11485196 30.78770287 -27.453125 29.125 C-30.12457913 24.44995528 -30.09144488 19.35922303 -29.453125 14.125 C-27.41734132 7.46243522 -23.51472885 3.62376933 -17.65625 0.01953125 C-12.33047588 -2.14288413 -5.3697294 -1.91531749 0 0 Z " fill="#8BC9FE" transform="translate(486.453125,179.875)"/>
<path d="M0 0 C4.97885861 4.20436949 8.07092321 8.49646246 9 15 C10.00377686 15.09603516 11.00755371 15.19207031 12.04174805 15.29101562 C18.89355747 16.1525177 25.60336333 17.8222007 32.33203125 19.34375 C33.81550317 19.67651361 35.29904006 20.00898768 36.78263855 20.34118652 C39.87702094 21.03487622 42.97083087 21.73104505 46.06420898 22.42919922 C50.02896975 23.32395701 53.99476883 24.21400497 57.96095753 25.10240936 C61.01782995 25.78739452 64.07432154 26.47406556 67.13068199 27.16133118 C68.59344563 27.49019733 70.05628624 27.81872134 71.51920509 28.14689636 C73.55849604 28.60479736 75.5973067 29.06477656 77.63598633 29.52539062 C78.79544266 29.7866272 79.95489899 30.04786377 81.14949036 30.3170166 C84 31 84 31 87 32 C86.83628906 32.52078125 86.67257813 33.0415625 86.50390625 33.578125 C85.85941341 36.6756875 85.90588411 39.58841094 85.9375 42.75 C85.94652344 43.92046875 85.95554688 45.0909375 85.96484375 46.296875 C85.97644531 47.18890625 85.98804688 48.0809375 86 49 C85.04644119 48.78702271 84.09288239 48.57404541 83.11042786 48.35461426 C74.12164338 46.34769461 65.13163523 44.34634195 56.14040089 42.35042572 C51.51802091 41.32414077 46.89609353 40.29590298 42.27514648 39.26318359 C37.8152494 38.26653238 33.35423497 37.27503549 28.89240074 36.28709412 C27.19076464 35.90936939 25.48953854 35.52979271 23.78873634 35.14833069 C21.40554696 34.61415319 19.02098177 34.0865929 16.63598633 33.56054688 C15.93395584 33.40158432 15.23192535 33.24262177 14.50862122 33.07884216 C8.15741233 31.51729702 8.15741233 31.51729702 2.0859375 33.05859375 C1.23902344 33.74115234 1.23902344 33.74115234 0.375 34.4375 C-3.56014883 37.56247113 -6.56132448 38.13831871 -11.5625 38.125 C-12.53316406 38.12757813 -13.50382812 38.13015625 -14.50390625 38.1328125 C-17 38 -17 38 -19 37 C-19.2774707 37.58072266 -19.55494141 38.16144531 -19.84082031 38.75976562 C-20.9543865 40.9118472 -22.17564524 42.84797026 -23.546875 44.84375 C-24.05468506 45.58488037 -24.56249512 46.32601074 -25.08569336 47.08959961 C-25.63491455 47.88503174 -26.18413574 48.68046387 -26.75 49.5 C-27.32564697 50.33732666 -27.90129395 51.17465332 -28.49438477 52.03735352 C-34.35944773 60.55314909 -40.29139469 69.02202739 -46.23388672 77.48388672 C-49.16021871 81.65291872 -52.07972658 85.82672317 -55 90 C-56.16144752 91.65886173 -57.32290587 93.31771589 -58.484375 94.9765625 C-60.87163138 98.38673824 -63.25679597 101.79836513 -65.640625 105.2109375 C-68.55374109 109.38076106 -71.47296115 113.54625449 -74.39550781 117.70947266 C-75.92280071 119.88979249 -77.44234427 122.0753352 -78.9609375 124.26171875 C-79.84861655 125.52888533 -80.73661492 126.79582831 -81.625 128.0625 C-82.20942871 128.91110596 -82.20942871 128.91110596 -82.80566406 129.77685547 C-84.90370102 132.75015278 -86.87370858 135.10120951 -90 137 C-92.9375 137.5 -92.9375 137.5 -96 137 C-98.875 134.875 -98.875 134.875 -101 132 C-101.55236447 127.18653819 -100.65405518 124.7703284 -97.875 120.875 C-96.77671875 119.30878906 -96.77671875 119.30878906 -95.65625 117.7109375 C-95.23730469 117.12666992 -94.81835938 116.54240234 -94.38671875 115.94042969 C-92.85525482 113.79745868 -91.34822232 111.63856499 -89.84375 109.4765625 C-86.85581421 105.18617118 -83.85315402 100.90632075 -80.84667969 96.62890625 C-77.89230738 92.42310495 -74.94645418 88.21135031 -72 84 C-70.83337706 82.33330272 -69.66671033 80.6666361 -68.5 79 C-67.9225 78.175 -67.345 77.35 -66.75 76.5 C-65 74 -63.25 71.5 -61.5 69 C-60.63266235 67.76092896 -60.63266235 67.76092896 -59.74780273 66.49682617 C-58.58850404 64.84070831 -57.42916203 63.18462075 -56.26977539 61.52856445 C-53.2400115 57.20075675 -50.21114317 52.87232595 -47.18359375 48.54296875 C-46.55646484 47.64642578 -45.92933594 46.74988281 -45.28320312 45.82617188 C-44.09021391 44.12063915 -42.89748732 42.41492267 -41.70507812 40.70898438 C-41.16173828 39.93232422 -40.61839844 39.15566406 -40.05859375 38.35546875 C-39.54401611 37.61224365 -39.02943848 36.86901855 -38.49926758 36.10327148 C-37.5330728 34.7478297 -36.53206071 33.4162304 -35.4909668 32.11743164 C-32.17466402 27.92121019 -31.50286982 25.35546209 -31.9375 20.0625 C-32.18204215 12.85614857 -31.30374395 8.56772349 -26.38671875 3.2578125 C-18.61798265 -3.9424795 -9.34561168 -4.93841796 0 0 Z " fill="#CB98E7" transform="translate(161,197)"/>
<path d="M0 0 C2.00286379 1.94480977 3.68468238 3.86024196 5.4375 6.0625 C7.66501173 8.61598906 8.90162763 9.85245468 12 11 C11.37934817 14.25194275 10.2484659 16.37717006 8.33203125 19.0625 C7.49768555 20.24199219 7.49768555 20.24199219 6.64648438 21.4453125 C6.04126953 22.28835937 5.43605469 23.13140625 4.8125 24 C3.52718462 25.81238716 2.24203285 27.62489035 0.95703125 29.4375 C0.29783691 30.36304688 -0.36135742 31.28859375 -1.04052734 32.2421875 C-4.05045372 36.47843574 -7.02450865 40.73953189 -10 45 C-11.16646971 46.66680452 -12.33313704 48.33347076 -13.5 50 C-14.0775 50.825 -14.655 51.65 -15.25 52.5 C-17 55 -18.75 57.5 -20.5 60 C-21.07782227 60.8254834 -21.65564453 61.6509668 -22.25097656 62.50146484 C-23.41430058 64.16330991 -24.57771164 65.82509405 -25.74121094 67.48681641 C-28.70974716 71.72675092 -31.67662944 75.96782728 -34.640625 80.2109375 C-37.55374109 84.38076106 -40.47296115 88.54625449 -43.39550781 92.70947266 C-44.92280071 94.88979249 -46.44234427 97.0753352 -47.9609375 99.26171875 C-48.84861655 100.52888533 -49.73661492 101.79582831 -50.625 103.0625 C-51.20942871 103.91110596 -51.20942871 103.91110596 -51.80566406 104.77685547 C-53.90370102 107.75015278 -55.87370858 110.10120951 -59 112 C-61.9375 112.5 -61.9375 112.5 -65 112 C-67.875 109.875 -67.875 109.875 -70 107 C-70.55236447 102.18653819 -69.65405518 99.7703284 -66.875 95.875 C-65.77671875 94.30878906 -65.77671875 94.30878906 -64.65625 92.7109375 C-64.23730469 92.12666992 -63.81835938 91.54240234 -63.38671875 90.94042969 C-61.85525482 88.79745868 -60.34822232 86.63856499 -58.84375 84.4765625 C-55.85581421 80.18617118 -52.85315402 75.90632075 -49.84667969 71.62890625 C-46.89230738 67.42310495 -43.94645418 63.21135031 -41 59 C-39.83337706 57.33330272 -38.66671033 55.6666361 -37.5 54 C-36.9225 53.175 -36.345 52.35 -35.75 51.5 C-30.5 44 -30.5 44 -28.74804688 41.49731445 C-27.58775939 39.83969146 -26.42760198 38.18197741 -25.26757812 36.52416992 C-22.25439982 32.21835846 -19.2386092 27.91441028 -16.21875 23.61328125 C-15.59613281 22.72576172 -14.97351563 21.83824219 -14.33203125 20.92382812 C-13.15319335 19.24354425 -11.97356909 17.56381164 -10.79296875 15.88476562 C-7.11594301 10.64127426 -3.529293 5.3440173 0 0 Z " fill="#BC7FE1" transform="translate(130,222)"/>
<path d="M0 0 C1.0209375 1.0828125 1.0209375 1.0828125 2.0625 2.1875 C5.09214518 5.23455693 8.46217304 7.57207954 12 10 C8.03670427 18.89677322 -0.01576356 26.17144683 -6.53125 33.25 C-8.94378104 35.93737634 -11.2325621 38.68965444 -13.5 41.5 C-16.55348679 45.28460334 -19.70668301 48.92207537 -23 52.5 C-27.10292604 56.95804792 -30.94926837 61.56748936 -34.7578125 66.27734375 C-45.81938326 79.7092511 -45.81938326 79.7092511 -50.8125 80.375 C-54 80 -54 80 -56.875 77.875 C-59 75 -59 75 -59.6875 72.1875 C-58.07345234 64.7041881 -51.365765 59.11657242 -46.3515625 53.6328125 C-44.00298292 51.00333968 -41.77521304 48.30688967 -39.5625 45.5625 C-35.70174863 40.788597 -31.62562925 36.26611572 -27.46875 31.75 C-25.05621896 29.06262366 -22.7674379 26.31034556 -20.5 23.5 C-16.60631479 18.67596523 -12.50425596 14.08955368 -8.30859375 9.52734375 C-5.46298837 6.41210402 -2.72195822 3.22337157 0 0 Z " fill="#5FB7FF" transform="translate(119,362)"/>
<path d="M0 0 C21.09855713 6.78782342 42.15951748 13.68396794 63.1875 20.6875 C64.2614502 21.04465088 65.33540039 21.40180176 66.44189453 21.76977539 C69.49699924 22.78619333 72.5513672 23.80479108 75.60546875 24.82421875 C76.52776779 25.13099045 77.45006683 25.43776215 78.40031433 25.75382996 C79.24298355 26.03575699 80.08565277 26.31768402 80.95385742 26.6081543 C82.05886848 26.97688911 82.05886848 26.97688911 83.186203 27.35307312 C85 28 85 28 87 29 C86.75443359 29.78117187 86.75443359 29.78117187 86.50390625 30.578125 C85.85941341 33.6756875 85.90588411 36.58841094 85.9375 39.75 C85.94652344 40.92046875 85.95554687 42.0909375 85.96484375 43.296875 C85.97644531 44.18890625 85.98804688 45.0809375 86 46 C76.12146936 43.50891154 66.51467846 40.2572098 56.86328125 37.01953125 C55.13031164 36.4406289 53.39725244 35.86199466 51.66410828 35.28361511 C47.13746199 33.77220673 42.61202949 32.25719647 38.08685303 30.74139404 C33.45512391 29.19062327 28.82223824 27.6433157 24.18945312 26.09570312 C15.12517655 23.06716149 6.06218041 20.03480766 -3 17 C-3 13 -3 13 -2.0625 10.75 C-1.10959255 8.28365131 -0.72743422 6.42239219 -0.43359375 3.828125 C-0.29050781 2.56484375 -0.14742188 1.3015625 0 0 Z " fill="#60B7FE" transform="translate(276,335)"/>
<path d="M0 0 C4.74456178 2.7611794 7.60094743 6.18060163 9.9375 11.1875 C11.38059447 17.87821073 11.38318129 23.45415609 7.95703125 29.51953125 C4.31352839 34.59479184 -0.19883321 38.08829859 -6.375 39.375 C-13.33725194 40.01965296 -18.76429736 38.46356211 -24.1875 34.125 C-29.12407163 27.91902424 -30.71568381 21.25615216 -30.375 13.375 C-28.89758687 7.31968702 -25.24379743 4.00234867 -20.27734375 0.50390625 C-14.35262156 -3.01199665 -6.17647599 -2.8352966 0 0 Z " fill="#CB98E7" transform="translate(487.375,31.625)"/>
<path d="M0 0 C4.64448975 3.25306203 8.22914935 6.47911269 10 12 C10.87496745 19.12004761 10.33441734 25.13186576 6 31 C1.38695772 35.95428103 -3.18861937 38.07009345 -9.875 38.3125 C-15.98860235 38.16715433 -20.19952017 36.60042652 -24.8125 32.5 C-29.82138685 26.77555788 -30.32757891 21.87847136 -30.20703125 14.4921875 C-29.75014162 8.99227087 -27.67235446 5.34616063 -23.6875 1.6875 C-16.19202309 -4.20517052 -8.34764257 -4.47195138 0 0 Z " fill="#CB98E7" transform="translate(276,221)"/>
<path d="M0 0 C5.17700645 3.66178505 9.04780974 7.51276549 10.5625 13.8125 C11.44014602 20.10522193 11.39957159 25.30410325 8 30.8125 C4.09189581 35.8646628 -0.05990209 38.57942314 -6.4375 39.6875 C-13.04575877 40.21054751 -18.35101525 37.92497703 -23.4375 33.8125 C-27.05667319 30.45834636 -29.17385706 27.56797618 -29.91796875 22.61328125 C-30.10206802 14.92494488 -29.20623677 10.03022112 -24.125 4.125 C-17.03349264 -1.97699471 -8.86032836 -3.06084071 0 0 Z " fill="#8BC9FE" transform="translate(147.4375,334.1875)"/>
<path d="M0 0 C5.17032267 3.20646902 9.35841639 7.11003697 11.38671875 12.94140625 C12.34352927 19.28027596 12.2040183 25.5870146 8.8203125 31.18359375 C4.96804082 35.90708764 1.04140705 38.51969005 -5.03125 39.484375 C-11.51112619 39.74134758 -16.78721774 39.42502599 -22.0625 35.4375 C-27.0137333 30.66086938 -28.72125875 25.93856282 -28.92578125 19.25390625 C-28.84570599 13.82480363 -27.67786451 9.45810308 -24.61328125 4.94140625 C-17.99214185 -1.36372423 -8.60663386 -3.48639428 0 0 Z " fill="#8BC9FE" transform="translate(389.61328125,354.05859375)"/>
<path d="M0 0 C5.19278005 0.64909751 9.95625732 1.33962471 15.01098633 2.47460938 C15.66082489 2.61945267 16.31066345 2.76429596 16.98019409 2.91352844 C19.09830891 3.38662288 21.21517324 3.86506627 23.33203125 4.34375 C24.81550317 4.67651361 26.29904006 5.00898768 27.78263855 5.34118652 C30.87702094 6.03487622 33.97083087 6.73104505 37.06420898 7.42919922 C41.02896975 8.32395701 44.99476883 9.21400497 48.96095753 10.10240936 C52.01782995 10.78739452 55.07432154 11.47406556 58.13068199 12.16133118 C59.59344563 12.49019733 61.05628624 12.81872134 62.51920509 13.14689636 C64.55849604 13.60479736 66.5973067 14.06477656 68.63598633 14.52539062 C70.37517082 14.91724548 70.37517082 14.91724548 72.14949036 15.3170166 C75 16 75 16 78 17 C77.67 18.32 77.34 19.64 77 21 C77 25.29 77 29.58 77 34 C50.27 28.06 23.54 22.12 -4 16 C-2.68 10.72 -1.36 5.44 0 0 Z " fill="#BD80E1" transform="translate(170,212)"/>
<path d="M0 0 C-0.01160156 0.73605469 -0.02320313 1.47210938 -0.03515625 2.23046875 C-0.04417969 3.20628906 -0.05320312 4.18210937 -0.0625 5.1875 C-0.07410156 6.15042969 -0.08570313 7.11335938 -0.09765625 8.10546875 C-0.07962093 11.00285724 -0.07962093 11.00285724 0.56640625 13.80078125 C0.70949219 14.52652344 0.85257812 15.25226563 1 16 C-0.85544967 17.85544967 -3.89687393 17.55989287 -6.39648438 17.84790039 C-7.06492371 17.92607498 -7.73336304 18.00424957 -8.42205811 18.08479309 C-10.64546449 18.34354474 -12.86955141 18.59581162 -15.09375 18.84765625 C-16.64020451 19.02535325 -18.18663158 19.20328928 -19.73303223 19.38145447 C-22.98445853 19.75500128 -26.23623559 20.12529373 -29.48828125 20.4934082 C-33.63696046 20.96332365 -37.78461445 21.44167331 -41.93202972 21.92260075 C-45.13170439 22.29257484 -48.33191699 22.65771657 -51.53230286 23.02148247 C-53.06013996 23.19576748 -54.58780377 23.37157921 -56.11528015 23.54899788 C-63.76239523 24.43477621 -71.29062515 25.23673864 -79 25 C-79.13277344 24.26394531 -79.26554688 23.52789062 -79.40234375 22.76953125 C-79.66724609 21.30580078 -79.66724609 21.30580078 -79.9375 19.8125 C-80.11152344 18.84957031 -80.28554687 17.88664062 -80.46484375 16.89453125 C-80.95238219 14.25755325 -81.47111515 11.62892578 -82 9 C-71.75171775 7.82456225 -61.50322977 6.65093667 -51.25447369 5.47963715 C-46.49579935 4.9357246 -41.7371987 4.39118331 -36.97875977 3.84521484 C-32.38834437 3.31854814 -27.79774425 2.79352033 -23.20701027 2.26963806 C-21.45382797 2.06927597 -19.70071355 1.86831906 -17.94766808 1.66676331 C-15.49613109 1.38500072 -13.04436334 1.10533602 -10.5925293 0.82617188 C-9.86460678 0.74201523 -9.13668427 0.65785858 -8.38670349 0.57115173 C-5.57021597 0.25226448 -2.83747426 0 0 0 Z " fill="#5FB7FF" transform="translate(237,331)"/>
<path d="M0 0 C2.30114567 1.15057284 4.59382475 2.30982161 6.875 3.5 C9.8725456 4.93882189 12.82736531 6.01799402 16 7 C12.25965258 12.9948034 8.06202215 18.59922918 3.75 24.1875 C-0.70617573 29.96299637 -5.04932311 35.7912091 -9.25415039 41.75170898 C-12.48303272 46.31447311 -15.81968992 50.78902333 -19.1875 55.25 C-23.58806583 61.07989311 -27.88079039 66.96622818 -32 73 C-32.556875 72.278125 -33.11375 71.55625 -33.6875 70.8125 C-35.98244648 68.02134888 -38.4134273 65.52025033 -41 63 C-42.00118273 62.00118413 -43.00144822 61.00144613 -44 60 C-36.67468736 49.77173884 -29.25579148 39.62413452 -21.68847656 29.57348633 C-17.1564321 23.55131786 -12.65880274 17.50490716 -8.1875 11.4375 C-7.29816772 10.23202515 -7.29816772 10.23202515 -6.39086914 9.00219727 C-5.84293701 8.25768311 -5.29500488 7.51316895 -4.73046875 6.74609375 C-4.24989014 6.09310303 -3.76931152 5.4401123 -3.27416992 4.76733398 C-2.1467639 3.20356848 -1.06935018 1.60402527 0 0 Z " fill="#5FB7FF" transform="translate(433,294)"/>
<path d="M0 0 C0.8053418 0.61705811 0.8053418 0.61705811 1.62695312 1.24658203 C2.33787109 1.78653809 3.04878906 2.32649414 3.78125 2.8828125 C4.48314453 3.41793457 5.18503906 3.95305664 5.90820312 4.50439453 C8.4670653 6.33394515 11.13507706 7.71078468 14 9 C11.04439608 14.40797552 7.70778709 19.3483784 4.0625 24.3125 C2.90095871 25.90749168 1.73950284 27.50254556 0.578125 29.09765625 C-0.31036133 30.31412842 -0.31036133 30.31412842 -1.21679688 31.55517578 C-4.05330251 35.44410889 -6.87041053 39.34699102 -9.6875 43.25 C-10.48824951 44.35831177 -10.48824951 44.35831177 -11.30517578 45.48901367 C-16.22920593 52.3076561 -21.12076946 59.14925193 -26 66 C-27.95621604 64.08914549 -29.68210767 62.17797281 -31.4375 60.0625 C-33.53245092 57.55877817 -35.67672839 55.28381052 -38 53 C-36.67962098 51.17178289 -35.35923476 49.34357098 -34.03881836 47.51538086 C-32.87154498 45.89909269 -31.70439331 44.28271661 -30.53735352 42.66625977 C-27.5823616 38.57366904 -24.62584311 34.48221236 -21.6640625 30.39453125 C-14.36590195 20.316433 -7.15294464 10.18166895 0 0 Z " fill="#BD7FE1" transform="translate(312,166)"/>
<path d="M0 0 C0.10957031 0.58007812 0.21914063 1.16015625 0.33203125 1.7578125 C1.3143365 6.59746277 2.54821911 10.65366116 5 15 C-2.05003885 17.91322924 -9.16774057 20.48763504 -16.40625 22.890625 C-17.45276733 23.24010193 -18.49928467 23.58957886 -19.57751465 23.949646 C-21.76863342 24.68046931 -23.96025016 25.40980119 -26.15234375 26.13769531 C-29.51974904 27.25656189 -32.88494832 28.38188969 -36.25 29.5078125 C-38.38528836 30.21913528 -40.52070059 30.93008633 -42.65625 31.640625 C-43.66449829 31.97805725 -44.67274658 32.3154895 -45.71154785 32.66314697 C-46.64011597 32.97056824 -47.56868408 33.2779895 -48.52539062 33.59472656 C-49.3435022 33.86690002 -50.16161377 34.13907349 -51.0045166 34.41949463 C-53 35 -53 35 -55 35 C-55.19335938 34.18015625 -55.38671875 33.3603125 -55.5859375 32.515625 C-55.84632813 31.43796875 -56.10671875 30.3603125 -56.375 29.25 C-56.63023437 28.18265625 -56.88546875 27.1153125 -57.1484375 26.015625 C-57.88006111 23.42473772 -58.76311841 21.36659655 -60 19 C-52.62170689 16.5174089 -45.24180476 14.03966777 -37.85980511 11.56812286 C-34.43217825 10.42035979 -31.0051302 9.27092734 -27.5793457 8.11767578 C-24.27387726 7.00499558 -20.96696679 5.89670603 -17.65900612 4.79145813 C-15.7817943 4.16297125 -13.90610764 3.52993487 -12.03044128 2.89685059 C-10.31900688 2.32625916 -10.31900688 2.32625916 -8.57299805 1.74414062 C-7.567061 1.40660767 -6.56112396 1.06907471 -5.52470398 0.72131348 C-3 0 -3 0 0 0 Z " fill="#BD80E0" transform="translate(458,50)"/>
<path d="M0 0 C2.79852655 1.35230813 5.43557489 2.83982382 8.0625 4.5 C8.73410156 4.9228125 9.40570313 5.345625 10.09765625 5.78125 C11.74368832 6.83579211 13.37345752 7.91563835 15 9 C13.6789729 10.82911444 12.35793715 12.65822262 11.03686523 14.48730469 C9.87607842 16.09462382 8.7154366 17.70204767 7.55493164 19.30957031 C4.50090881 23.53954618 1.44459761 27.76782604 -1.6171875 31.9921875 C-2.19509033 32.79027832 -2.77299316 33.58836914 -3.3684082 34.41064453 C-4.47281531 35.93570994 -5.57808009 37.46015473 -6.68432617 38.98388672 C-9.54463205 42.93592973 -12.32497265 46.92010217 -15 51 C-18 50 -18 50 -19.75 47.6875 C-22.53829663 44.35703458 -25.16529752 42.99109552 -29 41 C-25.05626984 34.99717748 -20.97914381 29.11720719 -16.75 23.3125 C-15.61557777 21.74892108 -14.48146726 20.18511595 -13.34765625 18.62109375 C-12.78836426 17.85007324 -12.22907227 17.07905273 -11.65283203 16.28466797 C-9.14998477 12.82504541 -6.666871 9.3514699 -4.1875 5.875 C-3.76114258 5.27727783 -3.33478516 4.67955566 -2.89550781 4.0637207 C-1.9299277 2.70943996 -0.96489282 1.3547705 0 0 Z " fill="#BD7FE1" transform="translate(364,94)"/>
<path d="M0 0 C1.10029541 0.32145996 2.20059082 0.64291992 3.33422852 0.97412109 C6.2849325 1.79988587 8.9059231 2.34516213 11.9375 2.625 C13.29166667 2.75 14.64583333 2.875 16 3 C14.7638964 9.29831167 13.00492416 15.19064527 10.7421875 21.19140625 C10.43427277 22.02212143 10.12635803 22.85283661 9.80911255 23.70872498 C8.83655711 26.32872852 7.85593634 28.94562434 6.875 31.5625 C6.20909692 33.35201325 5.54372734 35.14172512 4.87890625 36.93164062 C3.25875697 41.29007874 1.63137359 45.6457514 0 50 C-7.5 47 -7.5 47 -15 44 C-13.79757474 37.9318863 -12.16228249 32.24164513 -9.9609375 26.46484375 C-9.67521881 25.70071671 -9.38950012 24.93658966 -9.09512329 24.14930725 C-8.19400557 21.74322828 -7.28467167 19.34035619 -6.375 16.9375 C-5.75726297 15.29252397 -5.14007056 13.64734331 -4.5234375 12.00195312 C-3.0219014 7.99891236 -1.51299584 3.99872273 0 0 Z " fill="#60B6FF" transform="translate(465,216)"/>
<path d="M0 0 C3.60389664 -0.11601004 7.20731467 -0.18718408 10.8125 -0.25 C11.83666016 -0.28351563 12.86082031 -0.31703125 13.91601562 -0.3515625 C14.89892578 -0.36445313 15.88183594 -0.37734375 16.89453125 -0.390625 C17.80050049 -0.41157227 18.70646973 -0.43251953 19.63989258 -0.45410156 C22 0 22 0 23.79638672 1.61010742 C25.37982636 4.75418261 25.37220132 7.11319308 25.36328125 10.62890625 C25.36263672 11.91087891 25.36199219 13.19285156 25.36132812 14.51367188 C25.35302979 15.17810303 25.34473145 15.84253418 25.33618164 16.52709961 C25.31253509 18.55948389 25.31563234 20.59055944 25.32226562 22.62304688 C25.26703644 32.59944533 25.26703644 32.59944533 23 36 C20.75341797 36.34057617 20.75341797 36.34057617 17.9921875 36.29296875 C17.00605469 36.28330078 16.01992188 36.27363281 15.00390625 36.26367188 C13.97136719 36.23853516 12.93882812 36.21339844 11.875 36.1875 C10.31458984 36.16719727 10.31458984 36.16719727 8.72265625 36.14648438 C6.14792373 36.11105228 3.5742167 36.06165221 1 36 C1.66 35.01 2.32 34.02 3 33 C3.38625984 28.71509088 3.32918691 24.42125648 3.31567383 20.12109375 C3.31251091 18.0072895 3.33599013 15.89488154 3.36132812 13.78125 C3.36360095 12.43750176 3.36430469 11.09374977 3.36328125 9.75 C3.36626221 8.52796875 3.36924316 7.3059375 3.37231445 6.046875 C3.26813354 2.99533879 3.26813354 2.99533879 1.47729492 1.078125 C0.9897876 0.72234375 0.50228027 0.3665625 0 0 Z " fill="#8D9CA8" transform="translate(484,476)"/>
<path d="M0 0 C2.65044005 4.59339211 2.51163753 8.81967004 2 14 C0.03391269 20.31217506 -3.12134647 23.93327439 -8.4375 27.75 C-11.29435098 29.14358584 -13.87923466 29.50351461 -17 30 C-17.33 30.66 -17.66 31.32 -18 32 C-21.2741604 25.72452591 -22.44188926 19.67595728 -20.30859375 12.7578125 C-17.75400137 7.09281685 -14.15555325 4.13763285 -9.0625 0.6875 C-6.03049895 -0.32316702 -3.16607719 -0.1217722 0 0 Z " fill="#B2D9FE" transform="translate(478,179)"/>
<path d="M0 0 C2.86891142 4.97201781 2.91700719 10.51938875 1.46484375 16.03125 C-1.14757081 22.54087316 -4.70363925 26.36742729 -10.9609375 29.28515625 C-13.70629932 30.24761068 -16.12367565 30.28763243 -19 30 C-21.56773309 25.18550046 -21.64785296 20.31239428 -21 15 C-19.18830503 9.07081646 -16.02803841 5.48884298 -11 2 C-7.22648674 0.01890554 -4.23632506 -0.19703837 0 0 Z " fill="#D8B0ED" transform="translate(383,62)"/>
<path d="M0 0 C3.17110029 5.20060448 2.57946345 11.1246807 2 17 C0.4375 20.4375 0.4375 20.4375 -2 23 C-2.49757812 23.54398438 -2.99515625 24.08796875 -3.5078125 24.6484375 C-7.94881917 29.04813248 -11.83343509 29.97203372 -18 30 C-20.97536298 26.15682281 -21.5318258 23.0535055 -21.34375 18.3359375 C-20.37753028 11.77003529 -16.9253414 7.2256973 -11.80078125 3.1875 C-7.87912926 0.60142147 -4.64095579 0 0 0 Z " fill="#D8B0ED" transform="translate(150,194)"/>
<path d="M0 0 C2.83173265 4.81733004 2.47154459 9.56564191 2 15 C0.29306415 21.40100945 -3.43000016 25.55943248 -9 29 C-12.31162538 30.06461925 -15.5430165 30.65288485 -19 31 C-21.3244163 25.33423528 -22.14891556 19.77697391 -20.34765625 13.85546875 C-17.54146358 7.55658992 -13.12044829 3.34607573 -6.8125 0.625 C-4 0 -4 0 0 0 Z " fill="#D9B1EE" transform="translate(330,134)"/>
<path d="M0 0 C2.99191796 3.30142671 3.48873556 6.48529544 3.2734375 10.890625 C2.34240859 18.07284802 -0.42104634 21.96156056 -5.96484375 26.5546875 C-10.03746491 29.44695205 -12.92387306 30.55175293 -18 30 C-21.25764541 25.11353188 -20.4374363 19.7148936 -20 14 C-18.29173268 8.47325279 -14.60762414 5.2824225 -10 2 C-6.64013008 0.24006814 -3.78457241 -0.69715808 0 0 Z " fill="#B2D9FE" transform="translate(449,260)"/>
<path d="M0 0 C2.66245475 2.83995173 2.98709989 4.88942762 3.4375 8.75 C3.17780435 14.48494565 1.18118709 19.63043766 -2.71875 23.8671875 C-6.71261659 27.40412868 -9.73458685 29.15189202 -15.1875 29.0625 C-17.0746875 29.0315625 -17.0746875 29.0315625 -19 29 C-21.19782446 24.60435109 -20.32178219 18.79747996 -20 14 C-18.00765257 8.12781811 -14.30003963 4.41917339 -9.0625 1.1875 C-5.68265502 -0.12305214 -3.57931452 -0.63632258 0 0 Z " fill="#B2D9FE" transform="translate(138,333)"/>
<path d="M0 0 C2.77900098 4.63166829 4.00564287 8.66163411 3 14 C0.91787501 19.68942795 -1.52541407 25.02468156 -7 28 C-10.63008468 29.17579829 -14.28314354 30.14076173 -18 31 C-20.50879314 24.88481673 -20.65784337 19.28921683 -19.375 12.875 C-16.92224108 7.74650409 -13.68708318 3.49243807 -8.4375 1.0625 C-5.3613079 0.11167699 -3.17909068 -0.28900824 0 0 Z " fill="#B1D9FE" transform="translate(256,317)"/>
<path d="M0 0 C2.84731957 5.33872419 2.98960048 11.4487122 1.3828125 17.21484375 C-0.9745824 22.64936917 -4.75252176 26.29131968 -10 29 C-12.7715047 29.71172995 -15.11587783 29.89699564 -18 30 C-20.95099129 24.78089144 -21.86137744 18.5738 -20.44921875 12.71484375 C-18.07291095 7.28178759 -14.03051156 3.98525224 -9 1 C-5.8035914 -0.06546953 -3.34252724 -0.07427838 0 0 Z " fill="#D8B0ED" transform="translate(478,30)"/>
<path d="M0 0 C2.66947943 5.45018718 4.33441617 9.91732195 2.34375 16.0078125 C0.0491837 21.21014817 -3.11106895 25.0556344 -8 28 C-11.28130774 29.26941102 -14.57277601 30.21387619 -18 31 C-20.89808531 24.1170474 -21.14415077 17.15741615 -18.4375 10.1875 C-16.16461776 5.60114833 -13.38745972 3.55270384 -9 1 C-5.8035914 -0.06546953 -3.34252724 -0.07427838 0 0 Z " fill="#B1D9FE" transform="translate(381,353)"/>
<path d="M0 0 C0.81505387 18.65567747 0.81505387 18.65567747 -4 24 C-8.10157387 27.72284308 -11.89529023 30.35486782 -17.5625 30.375 C-18.696875 30.25125 -19.83125 30.1275 -21 30 C-22.6630735 23.76347437 -22.69005565 17.43549053 -20.9375 11.25 C-17.9212924 6.190555 -14.30644224 3.03554549 -8.9375 0.625 C-5.87060336 -0.0275312 -3.12559338 -0.04335081 0 0 Z " fill="#D9B0EE" transform="translate(268,218)"/>
</svg>
