<?xml version="1.0" encoding="UTF-8"?>
<svg version="1.1" xmlns="http://www.w3.org/2000/svg" width="128" height="128">
<path d="M0 0 C0.86584717 -0.00511093 1.73169434 -0.01022186 2.6237793 -0.01548767 C5.47468048 -0.02934216 8.32533876 -0.02842992 11.17626953 -0.02612305 C13.16635222 -0.03001245 15.15643409 -0.03434762 17.14651489 -0.03910828 C21.31417534 -0.04656173 25.48175107 -0.04628568 29.64941406 -0.04101562 C34.97783635 -0.0352243 40.30591066 -0.0521482 45.63427544 -0.0753603 C49.74364229 -0.09012628 53.85292592 -0.0909654 57.96231461 -0.08785057 C59.92621677 -0.08836241 61.89012377 -0.09357426 63.85400009 -0.10366249 C66.60601852 -0.1160642 69.35736648 -0.10921275 72.109375 -0.09765625 C73.31444199 -0.10912186 73.31444199 -0.10912186 74.54385376 -0.12081909 C80.80867919 -0.06296834 86.43645877 1.02964895 91.42626953 5.10668945 C91.96509766 5.76024414 92.50392578 6.41379883 93.05908203 7.0871582 C93.61337891 7.73297852 94.16767578 8.37879883 94.73876953 9.04418945 C98.26780543 14.49035026 98.47797543 19.82154593 98.45874023 26.09057617 C98.46385117 26.95642334 98.4689621 27.82227051 98.47422791 28.71435547 C98.4880824 31.56525665 98.48717015 34.41591493 98.48486328 37.2668457 C98.48875268 39.2569284 98.49308785 41.24701026 98.49784851 43.23709106 C98.50530196 47.40475151 98.50502591 51.57232724 98.49975586 55.73999023 C98.49396454 61.06841252 98.51088843 66.39648683 98.53410053 71.72485161 C98.54886652 75.83421846 98.54970563 79.94350209 98.54659081 84.05289078 C98.54710264 86.01679295 98.5523145 87.98069994 98.56240273 89.94457626 C98.57480444 92.69659469 98.56795298 95.44794266 98.55639648 98.19995117 C98.56404022 99.00332916 98.57168396 99.80670715 98.57955933 100.63442993 C98.52170857 106.89925537 97.42909128 112.52703494 93.35205078 117.5168457 C92.69849609 118.05567383 92.04494141 118.59450195 91.37158203 119.1496582 C90.40285156 119.98110352 90.40285156 119.98110352 89.41455078 120.8293457 C83.96838997 124.3583816 78.6371943 124.5685516 72.36816406 124.54931641 C71.50231689 124.55442734 70.63646973 124.55953827 69.74438477 124.56480408 C66.89348358 124.57865857 64.0428253 124.57774632 61.19189453 124.57543945 C59.20181184 124.57932885 57.21172997 124.58366403 55.22164917 124.58842468 C51.05398872 124.59587814 46.886413 124.59560209 42.71875 124.59033203 C37.39032772 124.58454071 32.06225341 124.6014646 26.73388863 124.6246767 C22.62452177 124.63944269 18.51523814 124.6402818 14.40584946 124.63716698 C12.44194729 124.63767882 10.47804029 124.64289067 8.51416397 124.6529789 C5.76214554 124.66538061 3.01079758 124.65852915 0.25878906 124.64697266 C-0.54458893 124.65461639 -1.34796692 124.66226013 -2.1756897 124.6701355 C-8.44051513 124.61228474 -14.06829471 123.51966745 -19.05810547 119.44262695 C-19.59693359 118.78907227 -20.13576172 118.13551758 -20.69091797 117.4621582 C-21.24521484 116.81633789 -21.79951172 116.17051758 -22.37060547 115.50512695 C-25.89964137 110.05896615 -26.10981136 104.72777047 -26.09057617 98.45874023 C-26.0956871 97.59289307 -26.10079803 96.7270459 -26.10606384 95.83496094 C-26.11991834 92.98405975 -26.11900609 90.13340147 -26.11669922 87.2824707 C-26.12058862 85.29238801 -26.12492379 83.30230614 -26.12968445 81.31222534 C-26.1371379 77.14456489 -26.13686185 72.97698917 -26.1315918 68.80932617 C-26.12580048 63.48090389 -26.14272437 58.15282958 -26.16593647 52.8244648 C-26.18070246 48.71509794 -26.18154157 44.60581432 -26.17842674 40.49642563 C-26.17893858 38.53252346 -26.18415044 36.56861647 -26.19423866 34.60474014 C-26.20664037 31.85272172 -26.19978892 29.10137375 -26.18823242 26.34936523 C-26.19969803 25.14429825 -26.19969803 25.14429825 -26.21139526 23.91488647 C-26.15354451 17.65006104 -25.06092722 12.02228147 -20.98388672 7.0324707 C-20.33033203 6.49364258 -19.67677734 5.95481445 -19.00341797 5.3996582 C-18.35759766 4.84536133 -17.71177734 4.29106445 -17.04638672 3.7199707 C-11.60022591 0.1909348 -6.26903024 -0.01923519 0 0 Z M-1.81591797 29.2746582 C-3.60560823 31.70138387 -3.60560823 31.70138387 -4.81591797 34.2746582 C-3.82591797 35.5946582 -2.83591797 36.9146582 -1.81591797 38.2746582 C0.63632897 38.16851984 0.63632897 38.16851984 3.18408203 37.2746582 C4.55874828 34.79829808 4.55874828 34.79829808 5.18408203 32.2746582 C3.93523933 30.69133291 3.93523933 30.69133291 2.18408203 29.2746582 C0.86408203 29.2746582 -0.45591797 29.2746582 -1.81591797 29.2746582 Z M19.35180664 30.63386536 C17.89743448 32.29858013 17.89743448 32.29858013 18.43408203 34.8996582 C18.96153848 37.2058989 18.96153848 37.2058989 20.18408203 38.2746582 C21.86116627 38.37862838 23.54260995 38.4131873 25.22290039 38.41992188 C26.83478493 38.42949165 26.83478493 38.42949165 28.47923279 38.43925476 C30.23385582 38.440924 30.23385582 38.440924 32.02392578 38.44262695 C33.81256798 38.44761955 33.81256798 38.44761955 35.63734436 38.45271301 C38.16520806 38.45778736 40.69307848 38.46012118 43.22094727 38.45996094 C47.10134858 38.46214681 50.98146549 38.48029577 54.86181641 38.49926758 C57.31168522 38.50220143 59.76155539 38.50418628 62.21142578 38.50512695 C63.37915024 38.51231247 64.54687469 38.51949799 65.74998474 38.52690125 C66.82772659 38.52382462 67.90546844 38.52074799 69.01586914 38.51757812 C69.96771591 38.51900314 70.91956268 38.52042816 71.9002533 38.52189636 C74.38202397 38.49464661 74.38202397 38.49464661 76.18408203 36.2746582 C76.6007487 33.7746582 76.6007487 33.7746582 76.18408203 31.2746582 C72.9038953 29.08786705 71.92374014 29.01931145 68.11767578 29 C67.08650635 28.99046799 66.05533691 28.98093597 64.99291992 28.97111511 C63.88037842 28.97202652 62.76783691 28.97293793 61.62158203 28.97387695 C60.47874756 28.96959183 59.33591309 28.9653067 58.15844727 28.96089172 C55.74089216 28.95514576 53.32331977 28.95465011 50.90576172 28.95898438 C47.19875754 28.96214569 43.49255006 28.93868275 39.78564453 28.91333008 C37.43929137 28.91105733 35.09293607 28.91035347 32.74658203 28.91137695 C31.07776978 28.89756233 31.07776978 28.89756233 29.37524414 28.88346863 C27.82848999 28.89281181 27.82848999 28.89281181 26.25048828 28.90234375 C25.34242432 28.90171432 24.43436035 28.9010849 23.4987793 28.9004364 C21.12258918 29.10251504 21.12258918 29.10251504 19.35180664 30.63386536 Z M-2.62841797 58.3996582 C-4.05351706 60.26578194 -4.05351706 60.26578194 -3.75341797 62.8371582 C-3.03686579 65.42126844 -3.03686579 65.42126844 -0.75341797 66.5871582 C-0.11404297 66.8140332 0.52533203 67.0409082 1.18408203 67.2746582 C2.50408203 65.9546582 3.82408203 64.6346582 5.18408203 63.2746582 C4.48068637 60.76500207 4.48068637 60.76500207 3.18408203 58.2746582 C0.65638094 56.97003828 -0.19944824 56.89202182 -2.62841797 58.3996582 Z M18.18408203 60.2746582 C18.45442837 62.71183078 18.45442837 62.71183078 19.18408203 65.2746582 C22.41851774 67.43094867 23.31761265 67.52953384 27.05102539 67.54931641 C28.03892563 67.55884842 29.02682587 67.56838043 30.04466248 67.57820129 C31.11031937 67.57728989 32.17597626 67.57637848 33.27392578 67.57543945 C34.36999649 67.57972458 35.4660672 67.5840097 36.59535217 67.58842468 C38.91455392 67.59417052 41.2337737 67.59466639 43.55297852 67.59033203 C47.10415357 67.5871737 50.6544945 67.61062329 54.20556641 67.63598633 C56.45751848 67.63825942 58.70947279 67.63896277 60.96142578 67.63793945 C62.55687477 67.65175407 62.55687477 67.65175407 64.18455505 67.66584778 C65.67113365 67.65650459 65.67113365 67.65650459 67.18774414 67.64697266 C68.05805771 67.64760208 68.92837128 67.64823151 69.82505798 67.64888 C72.6550861 67.19994087 74.05160972 66.14053051 76.18408203 64.2746582 C75.91373569 61.83748562 75.91373569 61.83748562 75.18408203 59.2746582 C71.94964632 57.11836773 71.05055141 57.01978256 67.31713867 57 C66.32923843 56.99046799 65.3413382 56.98093597 64.32350159 56.97111511 C62.72501625 56.97248222 62.72501625 56.97248222 61.09423828 56.97387695 C59.99816757 56.96959183 58.90209686 56.9653067 57.77281189 56.96089172 C55.45361014 56.95514589 53.13439036 56.95465001 50.81518555 56.95898438 C47.26401049 56.9621427 43.71366956 56.93869312 40.16259766 56.91333008 C37.91064558 56.91105699 35.65869127 56.91035363 33.40673828 56.91137695 C32.34310562 56.90216721 31.27947296 56.89295746 30.18360901 56.88346863 C28.69703041 56.89281181 28.69703041 56.89281181 27.18041992 56.90234375 C26.31010635 56.90171432 25.43979279 56.9010849 24.54310608 56.9004364 C21.71307796 57.34937554 20.31655435 58.4087859 18.18408203 60.2746582 Z M-3.81591797 88.2746582 C-3.98279245 90.85820039 -3.98279245 90.85820039 -3.81591797 93.2746582 C-1.54989932 94.56508583 -1.54989932 94.56508583 1.18408203 95.2746582 C3.50919675 94.01113768 3.50919675 94.01113768 5.18408203 92.2746582 C4.80503995 88.98389824 4.80503995 88.98389824 3.18408203 86.2746582 C-0.77708597 85.88375487 -0.77708597 85.88375487 -3.81591797 88.2746582 Z M20.18408203 86.2746582 C17.91969804 88.96621021 17.91969804 88.96621021 18.43408203 91.3371582 C19.10940921 93.46942795 19.10940921 93.46942795 21.18408203 95.2746582 C23.4670358 95.5808358 23.4670358 95.5808358 26.13696289 95.53344727 C27.68383034 95.54290375 27.68383034 95.54290375 29.26194763 95.55255127 C30.37965042 95.54850281 31.49735321 95.54445435 32.64892578 95.5402832 C34.36529991 95.54315338 34.36529991 95.54315338 36.11634827 95.54608154 C38.53988871 95.54744453 40.96343642 95.54374023 43.38696289 95.53540039 C47.10270567 95.5247125 50.81796385 95.5352871 54.53369141 95.5480957 C56.88460394 95.54677394 59.23551616 95.54421119 61.58642578 95.5402832 C62.70210434 95.54433167 63.8177829 95.54838013 64.9672699 95.55255127 C66.51886559 95.54309479 66.51886559 95.54309479 68.10180664 95.53344727 C69.01288681 95.53185608 69.92396698 95.53026489 70.86265564 95.52862549 C73.45759838 95.42520253 73.45759838 95.42520253 76.18408203 93.2746582 C76.6007487 90.7746582 76.6007487 90.7746582 76.18408203 88.2746582 C73.61068766 85.70126383 72.60838592 86.01736771 69.03173828 86 C67.95722412 85.99046799 66.88270996 85.98093597 65.77563477 85.97111511 C64.61104736 85.97202652 63.44645996 85.97293793 62.24658203 85.97387695 C61.05556885 85.96959183 59.86455566 85.9653067 58.63745117 85.96089172 C56.11556637 85.95514046 53.59366498 85.95465399 51.07177734 85.95898438 C47.20007223 85.96214515 43.32913011 85.93869105 39.45751953 85.91333008 C37.012208 85.91105737 34.5668944 85.91035346 32.12158203 85.91137695 C30.95699463 85.90216721 29.79240723 85.89295746 28.5925293 85.88346863 C27.51801514 85.88969742 26.44350098 85.89592621 25.33642578 85.90234375 C24.38759521 85.90171432 23.43876465 85.9010849 22.46118164 85.9004364 C21.33401733 86.08567619 21.33401733 86.08567619 20.18408203 86.2746582 Z " fill="#6b7280" transform="translate(27.81591796875,1.725341796875)"/>
</svg>
