<?xml version="1.0" encoding="UTF-8"?>
<svg version="1.1" xmlns="http://www.w3.org/2000/svg" width="512" height="512">
<path d="M0 0 C2.375 1.375 2.375 1.375 4 4 C5.22199362 13.0778746 2.90252225 22.71271435 1.53735352 31.68701172 C1.27234874 33.4651328 1.00798203 35.24334908 0.74420166 37.02165222 C0.02968752 41.82590027 -0.69384122 46.62875084 -1.41915393 51.43137884 C-2.17776735 56.4642551 -2.92837189 61.49832587 -3.6799469 66.53225708 C-4.94201712 74.97764128 -6.20949409 83.42219918 -7.48071289 91.86621094 C-9.11271843 102.70687946 -10.73616052 113.54881185 -12.35678005 124.39118767 C-13.750948 133.71836182 -15.14859113 143.04501468 -16.54702497 152.37155008 C-16.99627802 155.36841674 -17.44513791 158.36534213 -17.89398003 161.36227036 C-18.59867461 166.06576241 -19.30552254 170.76892616 -20.01405334 175.47184181 C-20.27393013 177.1987301 -20.53314617 178.92571797 -20.7916584 180.65281105 C-21.14418364 183.00709146 -21.49912771 185.36099457 -21.85472107 187.71481323 C-22.00793521 188.74349685 -22.00793521 188.74349685 -22.16424459 189.79296196 C-22.63728832 192.90721826 -23.15757585 195.96262544 -24 199 C-23.22124166 198.99723462 -22.44248331 198.99446924 -21.64012623 198.99162006 C-2.69478807 198.9253788 16.25052699 198.87572846 35.19595623 198.84456348 C44.35781194 198.82909191 53.51959037 198.80799683 62.68139648 198.77368164 C70.66644763 198.74378819 78.6514428 198.72442711 86.63654834 198.71773452 C90.86495918 198.71382216 95.0932099 198.70462157 99.32156944 198.68280983 C103.30158666 198.66244551 107.28137781 198.65616606 111.26144218 198.66067696 C112.72194395 198.65985173 114.18245329 198.65388563 115.64291 198.64238358 C117.63795753 198.62744217 119.63312639 198.63283764 121.6282196 198.63923645 C122.74451091 198.63647107 123.86080221 198.63370569 125.01092052 198.63085651 C128.68379119 199.08444642 131.36464993 200.36464993 134 203 C134.82093144 209.41040373 133.56610196 212.46379705 129.68359375 217.54296875 C129.06613281 218.31253906 128.44867188 219.08210937 127.8125 219.875 C126.51584838 221.55906583 125.22030027 223.24398182 123.92578125 224.9296875 C122.93698975 226.1995752 122.93698975 226.1995752 121.92822266 227.49511719 C119.0265153 231.26461801 116.26395204 235.12901221 113.5 239 C108.46287007 246.00424314 103.35783524 252.95617439 98.23046875 259.89453125 C94.28584489 265.23857821 90.38041885 270.60918549 86.5 276 C79.15996467 286.19356463 71.69545394 296.29401627 64.22949219 306.39550781 C57.40034581 315.63804661 50.6079307 324.9038828 43.89428711 334.23071289 C39.38568587 340.4862521 34.81319395 346.69318346 30.23046875 352.89453125 C26.28584596 358.23857676 22.38030944 363.60910781 18.5 369 C13.45992181 376.00215242 8.35786615 382.95613256 3.23046875 389.89453125 C-0.71415511 395.23857821 -4.61958115 400.60918549 -8.5 406 C-15.84003533 416.19356463 -23.30454606 426.29401627 -30.77050781 436.39550781 C-37.59965419 445.63804661 -44.3920693 454.9038828 -51.10571289 464.23071289 C-55.60683117 470.47586974 -60.1668579 476.67622666 -64.74975586 482.86157227 C-67.73746289 486.90101231 -70.69315434 490.95881706 -73.59765625 495.05859375 C-74.17966797 495.87714844 -74.76167969 496.69570313 -75.36132812 497.5390625 C-76.46376522 499.09335957 -77.56049745 500.65172513 -78.65039062 502.21484375 C-81.40707779 506.09488985 -83.96408035 509.34335929 -88 512 C-91.56003292 512.58122986 -93.25214775 512.43296709 -96.375 510.625 C-101.31122844 502.65109251 -96.88597713 489.17852192 -95.53735352 480.31298828 C-95.27234874 478.5348672 -95.00798203 476.75665092 -94.74420166 474.97834778 C-94.02968752 470.17409973 -93.30615878 465.37124916 -92.58084607 460.56862116 C-91.82223265 455.5357449 -91.07162811 450.50167413 -90.3200531 445.46774292 C-89.05798288 437.02235872 -87.79050591 428.57780082 -86.51928711 420.13378906 C-84.88728157 409.29312054 -83.26383948 398.45118815 -81.64321995 387.60881233 C-80.249052 378.28163818 -78.85140887 368.95498532 -77.45297503 359.62844992 C-77.00372198 356.63158326 -76.55486209 353.63465787 -76.10601997 350.63772964 C-75.40132539 345.93423759 -74.69447746 341.23107384 -73.98594666 336.52815819 C-73.72606987 334.8012699 -73.46685383 333.07428203 -73.2083416 331.34718895 C-72.85581636 328.99290854 -72.50087229 326.63900543 -72.14527893 324.28518677 C-71.99206479 323.25650315 -71.99206479 323.25650315 -71.83575541 322.20703804 C-71.36271168 319.09278174 -70.84242415 316.03737456 -70 313 C-71.16040692 313.00276538 -71.16040692 313.00276538 -72.3442564 313.00558662 C-91.16442906 313.04974794 -109.98459139 313.08284795 -128.8048048 313.10362434 C-137.90610298 313.1139386 -147.00736659 313.12800181 -156.10864258 313.15087891 C-164.04095572 313.17080818 -171.97324382 313.18371535 -179.9055813 313.18817699 C-184.10600752 313.19078515 -188.3063621 313.1969186 -192.50676537 313.21146011 C-196.4604848 313.2250367 -200.41410309 313.22922248 -204.36784363 313.22621536 C-205.81866315 313.22676549 -207.26948606 313.23074251 -208.72028542 313.23841095 C-210.70222652 313.24837281 -212.68422192 313.24477474 -214.66618347 313.24050903 C-216.32955891 313.24327441 -216.32955891 313.24327441 -218.0265379 313.24609566 C-222.22533914 312.89858601 -225.00892954 311.99107046 -228 309 C-228.81244478 302.85338907 -227.76264816 299.77887591 -224.09008789 294.86352539 C-223.52410889 294.14543701 -222.95812988 293.42734863 -222.375 292.6875 C-221.49799438 291.5262561 -221.49799438 291.5262561 -220.60327148 290.34155273 C-219.36849399 288.70696445 -218.12638609 287.0778908 -216.87744141 285.45410156 C-214.47065952 282.30807145 -212.12919987 279.1168178 -209.78930664 275.92089844 C-208.04533455 273.53905616 -206.29349634 271.16320726 -204.5390625 268.7890625 C-203.95543945 267.99918945 -203.37181641 267.20931641 -202.77050781 266.39550781 C-201.59016927 264.7985026 -200.40983073 263.2014974 -199.22949219 261.60449219 C-192.40034581 252.36195339 -185.6079307 243.0961172 -178.89428711 233.76928711 C-174.38568587 227.5137479 -169.81319395 221.30681654 -165.23046875 215.10546875 C-161.28584489 209.76142179 -157.38041885 204.39081451 -153.5 199 C-146.15996467 188.80643537 -138.69545394 178.70598373 -131.22949219 168.60449219 C-124.40034581 159.36195339 -117.6079307 150.0961172 -110.89428711 140.76928711 C-106.38568587 134.5137479 -101.81319395 128.30681654 -97.23046875 122.10546875 C-93.28584489 116.76142179 -89.38041885 111.39081451 -85.5 106 C-78.15996467 95.80643537 -70.69545394 85.70598373 -63.22949219 75.60449219 C-56.40034581 66.36195339 -49.6079307 57.0961172 -42.89428711 47.76928711 C-38.39316883 41.52413026 -33.8331421 35.32377334 -29.25024414 29.13842773 C-26.26253711 25.09898769 -23.30684566 21.04118294 -20.40234375 16.94140625 C-19.82033203 16.12285156 -19.23832031 15.30429688 -18.63867188 14.4609375 C-17.53623478 12.90664043 -16.43950255 11.34827487 -15.34960938 9.78515625 C-7.49150581 -1.27514993 -7.49150581 -1.27514993 0 0 Z " fill="#6b7280" transform="translate(303,0)"/>
</svg>
