<?xml version="1.0" encoding="UTF-8"?>
<svg version="1.1" xmlns="http://www.w3.org/2000/svg" width="512" height="512">
<path d="M0 0 C4.83690594 4.19994713 7.74176498 8.84423329 8.27124023 15.31469727 C8.28356689 16.55276123 8.29589355 17.7908252 8.30859375 19.06640625 C8.33378408 20.45377969 8.3591816 21.84114939 8.38476562 23.22851562 C8.41326323 25.38483411 8.43731145 27.54108651 8.45629883 29.69750977 C8.60247144 43.62567132 9.88322752 56.7291563 19.3125 67.6875 C20.199375 68.450625 21.08625 69.21375 22 70 C22.56332031 70.49242187 23.12664062 70.98484375 23.70703125 71.4921875 C34.15002531 80.04225596 46.11727446 81.15895742 59.11907959 81.13371277 C60.4276761 81.1371111 60.4276761 81.1371111 61.7627089 81.14057809 C64.6618067 81.14686626 67.56085712 81.14609208 70.45996094 81.14526367 C72.5485439 81.1482584 74.63712632 81.15166166 76.72570801 81.15544128 C82.38289527 81.1642536 88.04006739 81.16661824 93.69726086 81.16725707 C97.23639011 81.16796916 100.77551555 81.17010648 104.31464386 81.17275429 C116.67493432 81.18199862 129.03521401 81.18609033 141.39550781 81.18530273 C152.8953703 81.18470222 164.39518584 81.19525126 175.89503646 81.2110464 C185.7866366 81.22414576 195.67822144 81.22948562 205.56983018 81.22884732 C211.46945997 81.22859304 217.36904802 81.23140586 223.26866913 81.24202538 C228.82058276 81.2517467 234.37241507 81.25175797 239.92433167 81.24450874 C241.9539273 81.2434679 243.98352811 81.24579583 246.01311493 81.2518692 C265.41029558 81.74421679 265.41029558 81.74421679 283.625 76.0625 C284.58664062 75.55847656 285.54828125 75.05445313 286.5390625 74.53515625 C288.71829689 73.17572908 290.21721075 71.80980121 292 70 C292.66 70 293.32 70 294 70 C294.41958984 69.12601563 294.41958984 69.12601563 294.84765625 68.234375 C295.93175713 66.13232178 297.13144772 64.21925016 298.4375 62.25 C303.56183848 54.11756901 305.09048925 46.2786972 305.17578125 36.6953125 C305.19897774 35.29295371 305.22309501 33.8906099 305.24804688 32.48828125 C305.28308091 30.30735148 305.31248782 28.12697732 305.32592773 25.94580078 C305.39766539 16.17844241 305.50948747 8.59256963 312.75 1.1875 C318.6879721 -2.80921199 324.71167065 -5.20785872 332 -4 C339.45693568 -1.86581739 344.24258343 2.15020351 348.05630493 8.85784912 C349.05198064 11.11799401 349.26339431 12.60351163 349.29052734 15.05566406 C349.30328705 15.84459045 349.31604675 16.63351685 349.32919312 17.4463501 C349.33253159 18.71814117 349.33253159 18.71814117 349.3359375 20.015625 C349.3425943 20.90425232 349.3492511 21.79287964 349.35610962 22.70843506 C349.36623423 24.59466489 349.3709267 26.48093052 349.37060547 28.3671875 C349.37492158 31.19855527 349.41108131 34.02828897 349.44921875 36.859375 C349.60422716 61.86135153 342.08398154 82.99554084 324.68359375 101.40234375 C308.73115754 116.84393047 287.55661341 125.16197025 265.41320801 125.14044189 C264.45424102 125.14341302 263.49527404 125.14638414 262.50724745 125.1494453 C259.29714046 125.15810971 256.08707087 125.15963865 252.87695312 125.16113281 C250.57368897 125.16576267 248.27042558 125.17078756 245.96716309 125.17617798 C239.71057984 125.18928992 233.45400733 125.19574488 227.19741249 125.20018864 C223.28524761 125.203122 219.37308565 125.20722737 215.46092224 125.21169281 C204.61423094 125.22380018 193.76754286 125.23418209 182.92084503 125.2375679 C182.22722137 125.23778747 181.53359771 125.23800703 180.81895515 125.23823325 C180.12373246 125.23845153 179.42850976 125.23866981 178.71221972 125.2388947 C177.30358918 125.23933816 175.89495865 125.23978472 174.48632812 125.24023438 C173.43824853 125.24056652 173.43824853 125.24056652 172.36899561 125.24090537 C161.06238381 125.24484835 149.75583666 125.26228799 138.4492498 125.2855939 C126.82116098 125.30936751 115.1931077 125.32151509 103.56499434 125.32293582 C97.04431395 125.32398172 90.52372474 125.32984347 84.00306702 125.34775543 C77.8634924 125.36429231 71.72407693 125.36636434 65.58448792 125.35761642 C63.33922905 125.35684899 61.09396143 125.36114973 58.84872437 125.37107468 C31.68423632 125.48404717 7.96005543 119.38604077 -12 100 C-29.70502164 81.22194674 -35.19369433 60.07123986 -35.35009766 35.04248047 C-35.3666697 33.10095239 -35.39397618 31.15948563 -35.43212891 29.21826172 C-35.48715073 26.39779494 -35.50880503 23.57874501 -35.5234375 20.7578125 C-35.54610687 19.89922638 -35.56877625 19.04064026 -35.59213257 18.15603638 C-35.56797189 11.19699393 -33.32432103 6.51962533 -28.55697632 1.47219849 C-20.00679051 -6.23538258 -9.47647435 -5.4196559 0 0 Z " fill="#FFFFFF" transform="translate(99,302)"/>
<path d="M0 0 C1.423125 -0.01546875 1.423125 -0.01546875 2.875 -0.03125 C10.4988388 1.2648026 15.77973981 5.68665509 21.08691406 11.03759766 C22.07389282 12.00924362 22.07389282 12.00924362 23.08081055 13.0005188 C25.23611044 15.12819552 27.37640804 17.27022478 29.515625 19.4140625 C31.0187496 20.90940424 32.52231727 22.40430073 34.02630615 23.89877319 C37.16988984 27.02746897 40.30565713 30.16375592 43.43652344 33.30517578 C47.43651143 37.31675146 51.45876743 41.30513415 55.48767471 45.28763771 C58.59696594 48.36737254 61.69219394 51.46094986 64.78362274 54.55860519 C66.26042465 56.03438489 67.74191998 57.50548421 69.22827911 58.97163773 C71.31047104 61.02897367 73.37245524 63.10474153 75.43066406 65.18603516 C76.3440152 66.07645508 76.3440152 66.07645508 77.27581787 66.98486328 C82.48869682 72.32692355 86.05014647 78.98870419 86.5 86.5625 C85.52601504 94.23263155 82.83604339 99.47851993 76.78125 104.30859375 C72.51158367 107.16440127 69.45614784 107.84087935 64.25 107.9375 C62.49429688 107.99744141 62.49429688 107.99744141 60.703125 108.05859375 C53.14245566 106.91811304 47.70640931 101.65130672 42.53125 96.32421875 C41.68258362 95.4691851 41.68258362 95.4691851 40.81677246 94.59687805 C39.03725068 92.80075994 37.26853568 90.99442961 35.5 89.1875 C34.28455808 87.9569866 33.06841796 86.72716244 31.8515625 85.49804688 C28.89292362 82.506592 25.94391866 79.50593942 23 76.5 C22.99761165 77.33268402 22.99522329 78.16536804 22.99276257 79.02328491 C22.9335926 99.29666773 22.85802966 119.56993188 22.76428509 139.84318542 C22.71934479 149.64723637 22.67992602 159.45125114 22.65356445 169.25537109 C22.63057011 177.80195606 22.59715596 186.34842635 22.55129844 194.89492035 C22.52738564 199.41903884 22.50864412 203.9430439 22.50238609 208.46722412 C22.49632646 212.72884973 22.47629491 216.99018518 22.44572449 221.25170326 C22.43695833 222.81250301 22.43321873 224.37334069 22.43499184 225.93416405 C22.44856315 243.39900599 22.44856315 243.39900599 16.6875 250.25 C10.48572254 255.44218578 6.27044169 257.83969001 -1.84765625 257.71875 C-7.70103207 257.12385155 -12.84930808 254.65069192 -17 250.5 C-21.07986585 244.60073451 -22.12014939 239.90082728 -22.15821838 232.83087158 C-22.16562535 231.82731648 -22.16562535 231.82731648 -22.17318195 230.80348754 C-22.188531 228.56333009 -22.19691051 226.32320125 -22.20532227 224.08300781 C-22.21490283 222.47652434 -22.22491302 220.87004339 -22.23532104 219.26356506 C-22.26235684 214.90238684 -22.28337359 210.54119781 -22.30332303 206.17998219 C-22.32519074 201.62222639 -22.3525756 197.06450386 -22.37937927 192.5067749 C-22.42929552 183.87605508 -22.47423833 175.24531679 -22.51740164 166.61456084 C-22.56678312 156.78875642 -22.62169788 146.96298537 -22.67708123 137.13721323 C-22.79088489 116.92483991 -22.89772747 96.71243473 -23 76.5 C-24.22517334 77.74873901 -24.22517334 77.74873901 -25.47509766 79.02270508 C-28.52009863 82.12218528 -31.57516406 85.21157984 -34.63330078 88.2980957 C-35.95310747 89.63294799 -37.27020393 90.97048582 -38.58447266 92.31079102 C-40.47885789 94.24174463 -42.38292107 96.16269035 -44.2890625 98.08203125 C-44.87056061 98.67901321 -45.45205872 99.27599518 -46.05117798 99.8910675 C-51.41961255 105.26167381 -56.09624476 107.93070151 -63.875 108 C-71.28458904 107.82822871 -75.26710193 106.07935985 -80.51953125 101.04296875 C-84.90942906 96.24823886 -86.51032612 91.15434973 -86.31174088 84.69115639 C-85.16783814 76.65092175 -81.10538819 70.71828581 -75.43066406 65.18603516 C-74.7796875 64.52775726 -74.12871094 63.86947937 -73.45800781 63.19125366 C-71.32500877 61.04218257 -69.17126733 58.91540097 -67.015625 56.7890625 C-65.51490726 55.28938353 -64.01522894 53.78866375 -62.51654053 52.28695679 C-59.38202379 49.15261886 -56.23748945 46.02881631 -53.08496094 42.91259766 C-49.05535205 38.92840027 -45.04830736 34.92239272 -41.04809952 30.90870094 C-37.95697188 27.8108744 -34.85592234 24.72314002 -31.75164032 21.63850021 C-30.27070287 20.16523074 -28.79241617 18.68929152 -27.31690216 17.21059036 C-25.24992974 15.14287188 -23.1703712 13.08868812 -21.08691406 11.03759766 C-20.48611023 10.43183899 -19.8853064 9.82608032 -19.26629639 9.20196533 C-13.77842102 3.84876939 -7.89891333 -0.08585775 0 0 Z " fill="#FFFFFF" transform="translate(256,84.5)"/>
</svg>
