<?xml version="1.0" encoding="UTF-8"?>
<svg version="1.1" xmlns="http://www.w3.org/2000/svg" width="512" height="512">
<path d="M0 0 C0.96067383 0.18804199 1.92134766 0.37608398 2.91113281 0.56982422 C54.80724779 11.06763827 102.8212744 39.07454971 142.4453125 73.65576172 C144.0946241 75.08181538 145.76291452 76.48263613 147.4375 77.87890625 C152.62022243 82.20308259 157.70717207 86.52994321 162.3984375 91.39453125 C164.17177315 93.17219211 166.03302405 94.80141544 167.9375 96.4375 C174.04277201 101.71773526 179.57496856 107.42622483 184.828125 113.546875 C187.17695604 116.19987122 189.5956858 118.77616489 192.02709961 121.35327148 C198.31764194 128.02279219 204.37110707 134.75429739 210 142 C210.52335937 142.66644531 211.04671875 143.33289063 211.5859375 144.01953125 C215.89288686 149.73308547 217.28875701 154.76793154 217.3125 161.875 C217.32925781 163.02742187 217.34601562 164.17984375 217.36328125 165.3671875 C216.58065746 173.19342535 213.47207702 178.28023549 208.25 184 C207.71141357 184.60811523 207.17282715 185.21623047 206.61791992 185.84277344 C205.55701976 187.03926057 204.49167185 188.23182241 203.42138672 189.41992188 C201.69284916 191.34144285 200.00200854 193.29414541 198.3125 195.25 C197.21050175 196.50191209 196.10628956 197.75187844 195 199 C194.37480469 199.70640625 193.74960937 200.4128125 193.10546875 201.140625 C190.75366997 203.77603588 188.38099992 206.39092171 186 209 C185.46874512 209.58313965 184.93749023 210.1662793 184.39013672 210.76708984 C170.86809852 225.55812516 156.43343705 239.21857854 141 252 C140.41428223 252.48533203 139.82856445 252.97066406 139.22509766 253.47070312 C111.36916535 276.42066527 80.59109723 296.51390162 47 310 C45.76080811 310.50007568 45.76080811 310.50007568 44.49658203 311.01025391 C29.99744425 316.77366794 15.29126301 320.92277994 0 324 C-0.89058105 324.17934082 -1.78116211 324.35868164 -2.69873047 324.54345703 C-26.93866712 329.165615 -53.83413599 328.82700129 -78 324 C-78.96067383 323.81195801 -79.92134766 323.62391602 -80.91113281 323.43017578 C-132.80724779 312.93236173 -180.8212744 284.92545029 -220.4453125 250.34423828 C-222.0946241 248.91818462 -223.76291452 247.51736387 -225.4375 246.12109375 C-230.62022243 241.79691741 -235.70717207 237.47005679 -240.3984375 232.60546875 C-242.17177315 230.82780789 -244.03302405 229.19858456 -245.9375 227.5625 C-252.04277201 222.28226474 -257.57496856 216.57377517 -262.828125 210.453125 C-265.17695604 207.80012878 -267.5956858 205.22383511 -270.02709961 202.64672852 C-276.31764194 195.97720781 -282.37110707 189.24570261 -288 182 C-288.78503906 181.00033203 -288.78503906 181.00033203 -289.5859375 179.98046875 C-293.89288686 174.26691453 -295.28875701 169.23206846 -295.3125 162.125 C-295.32925781 160.97257813 -295.34601563 159.82015625 -295.36328125 158.6328125 C-294.58065746 150.80657465 -291.47207702 145.71976451 -286.25 140 C-285.71141357 139.39188477 -285.17282715 138.78376953 -284.61791992 138.15722656 C-283.55701976 136.96073943 -282.49167185 135.76817759 -281.42138672 134.58007812 C-279.69284916 132.65855715 -278.00200854 130.70585459 -276.3125 128.75 C-275.21050175 127.49808791 -274.10628956 126.24812156 -273 125 C-272.37480469 124.29359375 -271.74960937 123.5871875 -271.10546875 122.859375 C-268.75366997 120.22396412 -266.38099992 117.60907829 -264 115 C-263.46874512 114.41686035 -262.93749023 113.8337207 -262.39013672 113.23291016 C-248.86809852 98.44187484 -234.43343705 84.78142146 -219 72 C-218.12142334 71.27200195 -218.12142334 71.27200195 -217.22509766 70.52929688 C-189.36916535 47.57933473 -158.59109723 27.48609838 -125 14 C-124.17387207 13.66661621 -123.34774414 13.33323242 -122.49658203 12.98974609 C-107.99744425 7.22633206 -93.29126301 3.07722006 -78 0 C-77.10941895 -0.17934082 -76.21883789 -0.35868164 -75.30126953 -0.54345703 C-51.06133288 -5.165615 -24.16586401 -4.82700129 0 0 Z M-122 77 C-122.75925781 77.69609375 -123.51851562 78.3921875 -124.30078125 79.109375 C-145.48522895 99.15959493 -156.98955676 129.4231556 -158.125 158.1640625 C-158.72204793 191.22559184 -146.84621692 221.15525961 -124 245 C-123.30390625 245.75925781 -122.6078125 246.51851562 -121.890625 247.30078125 C-101.84040507 268.48522895 -71.5768444 279.98955676 -42.8359375 281.125 C-9.77440816 281.72204793 20.15525961 269.84621692 44 247 C44.75925781 246.30390625 45.51851562 245.6078125 46.30078125 244.890625 C67.48522895 224.84040507 78.98955676 194.5768444 80.125 165.8359375 C80.72204793 132.77440816 68.84621692 102.84474039 46 79 C45.30390625 78.24074219 44.6078125 77.48148438 43.890625 76.69921875 C23.84040507 55.51477105 -6.4231556 44.01044324 -35.1640625 42.875 C-68.22559184 42.27795207 -98.15525961 54.15378308 -122 77 Z " fill="#000000" transform="translate(295,94)"/>
<path d="M0 0 C18.33162393 14.7316151 29.13128967 34.67285551 32 58 C33.37712751 82.54994623 26.35083346 104.54580641 9.875 123.125 C-4.65760783 138.79924052 -25.370747 148.01108829 -46.62109375 149.203125 C-71.37486711 149.50716316 -93.17183125 141.48428864 -111.14453125 124.0078125 C-126.63231405 108.18322613 -134.30314407 86.35981962 -134.24438477 64.47070312 C-133.84583487 41.48505405 -123.9099094 20.44039594 -107.51660156 4.39599609 C-77.78477419 -22.97145222 -31.83549882 -23.94705664 0 0 Z M-89.21875 28.1015625 C-98.01918692 37.39456118 -101.6011653 47.41048771 -103 60 C-94.09 60 -85.18 60 -76 60 C-75.34 57.36 -74.68 54.72 -74 52 C-71.19258202 46.38516404 -67.68598575 44.16556098 -62 42 C-60.68 41.67 -59.36 41.34 -58 41 C-58 32.42 -58 23.84 -58 15 C-70.42845235 15 -80.28351086 19.638255 -89.21875 28.1015625 Z " fill="#000000" transform="translate(307,190)"/>
</svg>
